<svg width="50" height="50" viewBox="0 0 50 50" fill="none" xmlns="http://www.w3.org/2000/svg">
<path d="M25.1208 41.6667C20.4902 41.6667 16.5548 40.0465 13.3145 36.8062C10.0742 33.566 8.4541 29.6305 8.4541 25C8.4541 20.7792 9.8291 17.1194 12.5791 14.0208C15.3291 10.9222 18.7347 9.09305 22.7958 8.53333C22.9083 8.53333 23.0187 8.53749 23.127 8.54583C23.2354 8.55416 23.3416 8.56596 23.4458 8.58124C22.743 9.5618 22.1867 10.6521 21.777 11.8521C21.3673 13.0521 21.1624 14.3097 21.1624 15.625C21.1624 19.3292 22.4583 22.4771 25.0499 25.0687C27.6416 27.6604 30.7902 28.9569 34.4958 28.9583C35.8166 28.9583 37.0756 28.7535 38.2729 28.3437C39.4701 27.934 40.5451 27.3778 41.4979 26.675C41.5145 26.7792 41.5263 26.8854 41.5333 26.9937C41.5402 27.1021 41.5444 27.2125 41.5458 27.325C41.0124 31.3847 39.1965 34.7896 36.0979 37.5396C32.9992 40.2896 29.3416 41.6653 25.1208 41.6667Z" fill="#2B2B2B"/>
</svg>
