<svg width="72" height="72" viewBox="0 0 72 72" fill="none" xmlns="http://www.w3.org/2000/svg">
<path d="M9 39C19.8 15 52.2 15 63 39" stroke="white" stroke-width="4.5" stroke-linecap="round" stroke-linejoin="round"/>
<path d="M36 51C34.8181 51 33.6478 50.7672 32.5558 50.3149C31.4639 49.8626 30.4718 49.1997 29.636 48.364C28.8003 47.5282 28.1374 46.5361 27.6851 45.4442C27.2328 44.3522 27 43.1819 27 42C27 40.8181 27.2328 39.6478 27.6851 38.5558C28.1374 37.4639 28.8003 36.4718 29.636 35.636C30.4718 34.8003 31.4639 34.1374 32.5558 33.6851C33.6478 33.2328 34.8181 33 36 33C38.3869 33 40.6761 33.9482 42.364 35.636C44.0518 37.3239 45 39.6131 45 42C45 44.3869 44.0518 46.6761 42.364 48.364C40.6761 50.0518 38.3869 51 36 51Z" fill="white" stroke="white" stroke-width="4.5" stroke-linecap="round" stroke-linejoin="round"/>
</svg>
