<svg width="48" height="48" viewBox="0 0 48 48" fill="none" xmlns="http://www.w3.org/2000/svg">
<path fill-rule="evenodd" clip-rule="evenodd" d="M26 37.9999V45.9999H22V37.9999H26ZM35.3137 32.4852L40.9706 38.1421L38.1421 40.9705L32.4852 35.3136L35.3137 32.4852ZM12.6863 32.4852L15.5147 35.3136L9.85784 40.9705L7.02941 38.1421L12.6863 32.4852ZM24 13.0643C30.0396 13.0643 34.9357 17.9603 34.9357 24C34.9357 30.0395 30.0396 34.9356 24 34.9356C22.5632 34.9384 21.1399 34.6574 19.8119 34.1088C18.4839 33.5602 17.2773 32.7548 16.2612 31.7387C15.2452 30.7227 14.4398 29.5161 13.8912 28.1881C13.3426 26.8601 13.0616 25.4368 13.0643 24C13.0643 17.9603 17.9604 13.0643 24 13.0643ZM24 17.0643C20.1695 17.0643 17.0643 20.1695 17.0643 24.0076C17.0626 24.9179 17.2406 25.8195 17.5881 26.6609C17.9357 27.5022 18.4459 28.2666 19.0896 28.9103C20.3896 30.2103 22.1538 30.9391 24 30.9356V17.0643ZM46 21.9999V25.9999H38V21.9999H46ZM9.99997 21.9999V25.9999H2V21.9999H9.99997ZM9.85784 7.02935L15.5147 12.6862L12.6863 15.5147L7.02941 9.85778L9.85784 7.02935ZM38.1422 7.02935L40.9706 9.85778L35.3137 15.5147L32.4852 12.6862L38.1422 7.02935ZM25.9999 1.99994V9.99991H21.9999V1.99994H25.9999Z" fill="#E6E6FA"/>
</svg>
