<svg width="130" height="102" viewBox="0 0 130 102" fill="none" xmlns="http://www.w3.org/2000/svg">
<path d="M108.324 55.9727C106.871 55.9727 105.496 56.0911 104.19 56.3279C97.8878 57.4626 92.1152 52.5688 92.1152 46.1358V42.6233C92.1152 39.9002 89.9162 37.6901 87.2066 37.6901H74.9351C72.2157 37.6901 70.0264 35.48 70.0264 32.7568V12.0273C70.0264 6.05804 66.6297 0 58.1476 0C53.9949 0 50.3428 1.35171 46.0723 4.16367C44.05 5.49565 41.4386 5.08125 39.7697 3.32501C37.6786 1.11492 34.8218 0 31.3857 0C25.731 0 20.6457 2.93035 16.3064 6.34417V4.69646C16.3064 2.51596 14.5492 0.749855 12.3795 0.749855H3.9269C1.75729 0.749855 0 2.51596 0 4.69646V8.5148H3.55384C5.71364 8.5148 7.46111 10.271 7.48074 12.4318L8.0796 90.2589C8.09923 92.4492 6.33213 94.2351 4.1527 94.2351H0V97.0569C0 99.7899 2.19906 102 4.91844 102H108.225C120.762 102 130 92.8143 130 79.1788C130 65.5432 120.949 55.9727 108.324 55.9727ZM20.8617 94.2351C18.7019 94.2351 16.9544 92.4986 16.9348 90.3279C16.8268 76.8108 16.4537 32.076 16.3457 17.9472C16.3163 15.1352 17.7987 12.5107 20.2137 11.0998C23.6792 9.07719 26.4673 8.13987 28.8431 8.13987C32.986 8.13987 34.3113 11.3564 34.3113 14.1979V62.5537C34.3113 71.4829 37.2663 79.7214 42.2436 86.332C44.6881 89.5781 42.3811 94.2351 38.3364 94.2351H20.8715H20.8617ZM73.5999 94.2351C56.7928 94.2351 43.1664 80.5403 43.1664 63.6489V17.6216C43.1664 14.9182 44.531 12.3923 46.7988 10.9518C49.5673 9.20546 52.8266 7.76495 55.7914 7.76495C59.6594 7.76495 61.1615 10.6953 61.1615 14.0104V40.5218C61.1615 43.2449 63.3605 45.455 66.0701 45.455H68.6226C76.7611 45.4649 83.3484 52.0853 83.3484 60.2548V89.3018C83.3484 92.025 81.1494 94.2351 78.4398 94.2351H73.5999ZM106.34 94.9948C98.2412 94.9948 92.3901 88.4632 92.3901 79.751C92.3901 71.0389 97.9565 64.0238 106.439 64.0238C113.222 64.0238 120.575 68.6611 120.575 78.9913C120.575 88.2757 114.538 94.9948 106.34 94.9948Z" fill="white"/>
</svg>
