<svg width="229" height="229" viewBox="0 0 229 229" fill="none" xmlns="http://www.w3.org/2000/svg">
<path d="M150.275 221.122L152.602 221.28L149.861 221.722L150.275 221.113V221.122ZM211.756 176.237C211.529 176.66 211.302 177.073 211.036 177.565C211.391 177.044 211.618 176.631 211.756 176.237ZM212.712 170.494C210.583 173.602 212.505 174.015 211.756 176.237C212.732 174.31 213.431 173.208 214.171 172.009C214.89 170.799 215.58 169.442 216.556 167.042C214.279 170.406 213.589 171.192 212.712 170.484V170.494ZM219.513 161.82C219.149 162.479 218.705 163.6 218.123 163.984C219.05 164.623 219.878 161.161 219.513 161.82ZM0.749159 105.419L0 106.894C0.414009 106.382 0.621013 106.127 0.749159 105.419ZM65.9851 218.625C65.3542 218.28 64.5558 217.641 63.3729 217.7C63.1659 218.684 65.0881 218.487 65.9851 218.625ZM42.6823 26.25C43.6385 26.2795 44.7327 26.3287 43.9539 27.8924C47.6406 25.0896 53.8014 22.4244 53.9493 20.428C54.0281 20.723 54.2549 20.9885 54.935 20.8017L56.5122 17.812L53.8507 18.6872C54.2549 17.9398 55.0829 17.094 56.1376 16.2679C57.2219 15.4812 58.533 14.7141 59.844 14.0551C62.4858 12.7373 65.2261 12.0095 66.2118 12.1571C63.8954 13.5339 63.5898 14.4387 62.9491 15.2451C62.2985 16.0319 61.3916 16.7892 57.8528 17.9496C58.4147 18.284 60.0411 18.5397 58.74 19.5527C62.3379 17.3006 66.0245 15.6483 69.7703 14.1043C71.6432 13.3175 73.526 12.5209 75.4482 11.7145C76.4043 11.3015 77.3704 10.8491 78.3462 10.377C79.332 9.93445 80.3177 9.46239 81.3232 8.94115C77.7252 9.02967 78.6912 8.37075 80.2783 7.4758C81.8555 6.57102 84.0536 5.49905 82.6835 4.66311L79.1151 6.43333L79.263 5.75475L76.9958 6.50218L74.7582 7.34795C76.01 8.02654 76.7198 7.86918 76.8479 8.98049C73.8217 9.76726 73.2401 9.61974 72.8163 9.2952C72.3924 8.98049 72.1262 8.41992 69.7013 8.63628L66.409 10.0426C65.3148 10.5147 64.2502 11.0654 63.1758 11.5768L63.5701 11.0359C63.0279 11.3015 62.8406 11.5375 62.7322 11.7932C55.5265 15.3435 48.6953 19.6412 42.4162 24.5683C40.9179 26.2009 41.7262 26.25 42.6626 26.2697L42.6823 26.25ZM129.979 222.322L127.465 220.749C125.031 221.604 123.256 222.411 121.452 223.247C119.639 223.955 117.766 224.683 115.104 224.987C116.879 225.45 118.347 225.332 119.629 225.096C120.91 224.85 121.995 224.368 123.02 223.847C124.055 223.335 125.041 222.834 126.135 222.539C127.239 222.244 128.441 222.067 129.969 222.322H129.979ZM129.565 224.742C126.115 225.784 128.195 226.777 124.922 227.043L126.785 228.734C126.214 227.869 127.18 227.249 128.136 226.581C129.102 225.932 130.058 225.342 129.565 224.742ZM27.9456 39.6251C28.7933 38.858 29.6312 38.081 30.4986 37.3336C29.7101 37.9434 28.9018 38.681 27.9456 39.6251ZM209.183 178.421L208.444 180.692C208.907 179.896 209.084 179.168 209.183 178.421ZM129.9 8.65595C129.634 8.68546 129.368 8.70512 129.102 8.72479C129.437 8.73463 129.683 8.70512 129.9 8.65595ZM209.311 177.998C209.311 177.998 209.232 178.057 209.193 178.086C209.193 178.194 209.193 178.303 209.173 178.411L209.301 177.998H209.311ZM151.961 217.995C152.109 218.202 152.602 218.211 153.302 218.064C152.907 217.985 152.483 217.946 151.961 217.995ZM225.211 130.605C225.172 130.261 225.152 129.946 225.083 129.582C225.073 130.054 225.132 130.359 225.211 130.605ZM217.769 131.785C217.749 131.441 217.709 131.106 217.631 130.851L217.769 131.785ZM219.711 126.406C219.77 126.691 219.908 126.838 220.036 126.75C219.927 126.622 219.829 126.494 219.711 126.406ZM215.117 143.931L214.644 145.317C214.88 144.786 215.018 144.344 215.117 143.931ZM206.354 171.871C205.792 173.553 204.717 175.352 203.515 177.201L203.86 175.195C203.318 175.893 202.933 176.523 202.647 177.103C202.352 177.673 202.145 178.185 202.007 178.676C201.731 179.64 201.701 180.476 201.543 181.273C201.386 180.958 201.08 181.076 200.459 181.302C198.872 184.007 199.178 186.406 201.09 185.787L201.317 184.616C202.164 184.321 203.032 184.036 203.86 183.702C202.933 182.502 203.742 180.82 204.895 178.952C205.969 177.044 207.438 174.969 207.763 173.09C207.734 174.487 207.921 175.942 207.773 177.339C207.616 178.716 207.103 180.014 205.437 180.84L206.857 181.381C206.137 182.6 205.141 183.476 204.363 184.292C203.584 185.118 202.973 185.846 203.071 186.908C203.653 185.964 204.254 185.049 204.777 184.066L205.388 184.577C206.019 183.584 206.512 182.305 207.073 181.115C207.645 179.925 208.217 178.775 209.173 178.106C209.37 175.982 208.936 173.71 211.618 169.52L211.815 169.815C211.361 167.671 212.83 165.832 214.299 164.023C215.768 162.233 217.414 160.551 217.295 159.125C216.28 157.925 215.561 159.115 214.772 160.679C213.983 162.243 213.224 164.249 212.357 164.76C212.249 162.43 214.486 161.023 212.298 161.987C213.037 157.129 215.62 160.246 215.363 155.87L213.905 157.709C213.638 156.647 213.944 155.516 214.25 154.375C214.555 153.234 214.782 152.074 214.466 151.041C212.751 150.205 213.599 153.854 211.746 156.716L210.928 154.818C210.77 155.929 210.632 157.05 210.454 158.161L209.833 161.495C211.154 164.279 212.022 162.607 211.598 167.16C210.011 168.075 208.207 168.291 206.847 167.819C207.123 168.802 206.896 170.238 206.314 171.891L206.354 171.871ZM37.1524 32.0918L35.2795 33.4785C35.7723 33.7735 36.2455 34.0685 36.7778 34.098L37.1622 32.0918H37.1524ZM32.5095 35.6814L30.4986 37.3336C31.2774 36.7632 31.997 36.2715 32.7264 35.7994L32.5095 35.6912V35.6814ZM130.866 227.879C130.314 227.938 129.723 228.046 129.082 228.272C129.841 228.164 130.393 228.026 130.866 227.879ZM37.3889 30.9018L37.1524 32.0819L39.045 30.6953L37.3889 30.9018ZM58.7498 19.533C58.3457 19.7789 57.9514 20.0149 57.5571 20.2903C58.1189 19.9657 58.4738 19.7494 58.7498 19.533ZM15.5549 60.2777L15.4169 60.1204C15.4366 60.3072 15.476 60.3957 15.5549 60.2777ZM162.104 13.4749C163.76 14.2617 165.446 15.0189 167.053 15.9139C165.791 14.2715 168.847 15.5992 169.448 15.2451L166.451 13.5831L163.386 12.0489C163.139 12.6095 162.232 12.9242 162.114 13.4847L162.104 13.4749ZM89.8596 5.51872C88.5092 6.40383 86.3701 6.73821 84.9901 6.58085C84.7338 7.57415 86.7151 7.9577 86.7447 9.07884C89.4653 9.01983 90.8158 7.9872 92.1958 6.87589C92.8858 6.31532 93.5759 5.74491 94.4334 5.29252C95.291 4.8598 96.3359 4.59426 97.6864 4.59426C97.6075 5.71541 96.1092 6.85622 99.5198 6.29565L98.6721 6.63002C100.003 6.14813 100.969 6.04978 101.698 6.1383C102.428 6.21697 102.921 6.43333 103.335 6.60052C104.182 6.94473 104.725 7.06275 106.4 5.46954L106.381 7.05291C107.593 6.4235 109.426 6.07929 111.309 5.87276C113.182 5.71541 115.094 5.72524 116.484 5.6564L116.307 5.95144C120.21 5.26302 121.324 5.31219 122.527 5.4302C123.128 5.50888 123.749 5.64657 124.774 5.77442C125.79 5.92193 127.219 5.98094 129.397 6.18747C127.978 6.54151 126.568 7.01357 125.179 7.4463C128.008 8.55761 128.964 6.72837 131.063 7.29878C130.896 7.52497 131.034 8.41009 129.92 8.66579C133.222 8.35108 136.574 8.19373 139.974 8.18389C142.734 7.71183 139.777 6.92506 139.551 6.15797C140.733 5.42037 145.13 7.23977 145.041 8.28224C144.322 8.46909 141.788 8.2134 143.129 9.22636C144.538 8.72479 145.948 8.35108 147.387 7.92819C149.477 9.45255 148.294 9.93445 146.332 10.0623C144.381 10.1508 141.591 10.0623 140.339 10.1901C141.483 10.5934 142.458 10.8196 143.355 10.9671C144.243 11.1244 145.051 11.2228 145.879 11.2916C147.535 11.449 149.26 11.567 151.685 12.5406C150.325 11.7834 149.644 10.8196 149.043 10.0525C149.26 9.17719 150.472 9.34437 152.04 9.91478C153.617 10.4655 155.539 11.39 157.175 12.0686C155.411 10.4458 156.85 10.3672 158.674 10.4163C158.97 10.4852 159.196 10.4754 159.374 10.4262C159.591 10.4262 159.788 10.4262 160.005 10.4262L159.6 10.2492C159.709 10.082 159.719 9.82627 159.571 9.39355C158.063 9.01983 156.939 8.22323 155.914 7.49547C154.898 6.76771 154.011 6.02028 153.085 5.6564C153.479 7.37745 151.872 6.86606 149.792 6.07929C147.712 5.29252 145.159 4.0927 143.829 4.22055L141 3.72882L139.965 3.45345C139.836 3.08957 140.221 2.77487 141.956 2.66668C140.507 2.7847 136.091 1.64389 136.307 2.62735C134.632 2.22413 132.926 1.94876 131.231 1.65372L128.678 1.221L126.115 0.896458C125.809 0.739104 125.514 0.552247 125.297 0.316217C124.922 0.453901 124.843 0.591585 124.873 0.739104C109.949 -0.96228 94.7094 0.296548 80.3473 4.27956C82.5258 3.8665 84.5564 4.13204 86.8137 3.93535C83.9354 6.53168 90.4806 3.47312 89.8695 5.50888L89.8596 5.51872ZM162.094 10.1115C161.71 10.377 160.872 10.4262 159.985 10.4262C161.138 10.9179 162.262 11.4785 163.386 12.0391C163.573 11.6162 163.386 11.0556 162.104 10.1115H162.094ZM151.665 12.5308C152.158 12.816 152.74 13.0717 153.459 13.288C152.799 12.9832 152.227 12.7471 151.665 12.5308ZM227.626 107.12L228.553 109.067L228.592 106.53C228.355 107.277 226.818 106.097 227.626 107.12ZM228.592 106.048V106.54C228.631 106.431 228.631 106.274 228.592 106.048ZM16.9152 56.6684L17.2898 58.0059C17.4179 56.4619 17.5362 54.8884 17.7629 53.3542C16.5406 55.1637 15.4958 57.0815 14.372 58.9501L15.4268 60.1204C15.3873 59.4418 15.9591 57.111 16.9251 56.6783L16.9152 56.6684ZM21.3412 51.5938C20.2667 54.5638 18.8473 51.8298 19.1824 54.6228C20.2864 55.2916 21.7749 51.7905 22.1298 50.9644L19.5471 48.6139C18.0291 51.7511 19.6556 52.6166 21.3412 51.6036V51.5938ZM77.3112 5.15484L80.3374 4.28939C79.3714 4.45658 78.3857 4.70245 77.3112 5.15484ZM30.6958 34.7865L32.5095 35.6912C33.4361 34.9537 34.3134 34.1767 35.2696 33.4883C34.1459 32.8097 32.9137 32.141 30.6859 34.7963L30.6958 34.7865ZM222.086 77.4883C221.583 76.6917 221.022 75.9147 220.47 75.1476L220.332 75.8164C220.893 76.5736 221.406 77.3604 221.919 78.157L222.086 77.4883ZM23.4605 44.0506C22.8888 43.5097 22.0805 45.162 21.7355 46.0372C22.2283 45.4963 23.0761 44.8669 23.4605 44.0506ZM10.8037 66.1391C11.5232 64.4181 12.4203 62.5987 13.4159 60.5629C10.3108 66.5522 7.74788 72.807 5.77641 79.2093C6.69314 76.4655 7.57045 73.8298 8.79276 70.8794C9.35463 69.3846 10.0446 67.8405 10.8037 66.1391ZM172.257 70.9679C171.971 70.4369 171.646 69.9255 171.34 69.4042C171.271 70.0041 171.715 70.4959 172.257 70.9679ZM202.115 100.029C202.943 100.983 204.934 103.029 206.581 104.966C207.448 105.94 208.266 106.854 208.858 107.523C209.449 108.202 209.863 108.625 209.971 108.595C210.977 107.661 209.695 106.559 209.824 105.025L209.035 105.714C208.838 100.993 208.345 96.2133 207.458 91.7189C207.083 93.9514 206.59 95.9871 206.147 97.5607C205.654 99.144 205.112 100.275 204.609 100.727C203.535 101.642 202.726 99.862 201.228 93.6072L200.735 92.8696C200.765 93.735 200.903 94.8758 201.129 96.1248C201.366 97.3738 201.77 98.7113 202.105 100.039L202.115 100.029ZM203.111 109.549C202.874 112.067 203.663 111.447 204.432 111.801C204.274 110.916 204.116 110.041 203.958 109.165C203.791 109.52 203.544 109.697 203.111 109.549ZM190.493 64.4968C190.572 64.5853 190.612 64.6049 190.681 64.6935C190.395 64.1525 190.109 63.6116 189.803 63.0412C189.853 63.3068 190.02 63.7592 190.493 64.4968ZM199.818 111.959C200.627 111.663 200.568 112.145 200.41 112.824C200.223 113.503 199.937 114.348 200.37 114.82L202.007 112.755C202.076 113.67 203.495 115.489 201.908 115.44C202.707 115.46 203.998 116.925 203.298 114.181L204.54 116.246C204.727 116.128 204.885 115.971 204.993 115.784C205.072 116.404 205.181 117.043 205.23 117.682C204.678 118.469 204.688 119.925 203.406 121.075C202.914 121.144 202.785 119.836 202.569 119.098C202.194 120.023 202.066 120.888 202.076 121.665C202.046 122.442 202.145 123.131 202.283 123.681C202.854 120.79 203.505 122.393 204.905 121.823C205.329 123.691 204.816 126.681 204.974 127.812C204.52 129.051 203.86 130.133 203.18 130.654C202.48 131.175 201.8 131.156 201.317 130.261C201.248 129.975 201.139 129.69 200.982 129.395C201.07 129.759 201.189 130.015 201.317 130.261C201.691 131.933 200.765 133.437 201.869 135.385C200.922 131.982 205.191 135.935 203.85 131.539C205.053 131.106 205.24 132.021 204.964 133.29C204.826 133.929 204.579 134.647 204.284 135.326C203.988 136.004 203.594 136.634 203.268 137.106C203.17 135.955 202.233 136.702 201.701 136.309C201.731 139.525 203.623 138.492 204.708 136.348L205.013 140.302C205.062 140.174 205.092 140.066 205.141 139.948C205.013 141.256 204.786 142.534 204.609 143.813C202.795 143.793 201.662 143.557 202.352 142.682C201.79 143.223 201.238 143.754 200.666 144.275L201.06 141.236C199.365 142.062 199.956 144.383 199.404 145.858C198.655 146.527 198.665 145.475 198.675 143.97C198.655 142.456 198.537 140.469 197.738 139.328C197.177 137.666 198.823 134.932 199.592 134.903C199.671 134.932 199.74 134.971 199.818 135.001C199.759 134.922 199.68 134.903 199.592 134.903C197.679 134.047 199.523 129.405 198.557 127.35C198.704 126.17 198.971 125.402 199.276 124.842C199.592 124.281 199.976 123.937 200.341 123.593C201.041 122.914 201.731 122.275 201.307 120.082L199.966 121.577C199.759 119.669 199.621 118.321 199.582 116.925C199.483 115.528 199.602 114.093 199.809 111.988L199.818 111.959ZM200.715 136.279C200.311 137.401 200.163 138.325 200.252 139.456C200.725 139.122 201.711 136.309 200.715 136.279ZM137.609 210.196C136.505 210.324 135.44 210.452 134.504 210.56L134.553 210.236C136.583 209.055 136.741 208.033 135.568 207.61C136.219 207.089 137.313 206.557 137.875 206.026C139.087 205.859 142.084 204.187 142.863 205.495C140.457 206.331 140.733 206.439 142.143 206.931C142.636 206.42 143.306 206.007 143.996 205.604C144.686 205.181 145.416 204.807 146.047 204.433C147.318 203.686 148.215 202.958 147.643 201.955C150.778 200.45 148.777 201.925 151.37 201.591C151.961 202.063 151.389 202.909 150.798 203.764C151.557 203.332 152.316 202.928 153.065 202.476L155.273 201.089C156.752 200.194 158.161 199.172 159.571 198.188C159.324 197.342 157.708 197.834 156.407 198.07C155.096 198.306 154.1 198.228 155.096 196.497C155.569 195.602 154.208 193.428 157.402 192.405C157.56 192.583 157.402 192.858 157.175 193.123C156.959 193.31 156.742 193.527 156.476 193.831C156.604 193.684 156.929 193.409 157.175 193.123C158.309 192.11 158.812 192.445 160.379 191.835C161.71 192.937 159.334 193.959 158.97 195.503C159.729 194.658 160.369 193.418 161.434 192.907L161.542 193.566L162.942 192.435L164.283 191.235C164.736 189.357 162.006 192.691 161.266 191.943C161.72 191.265 162.144 190.566 162.548 189.839C163.494 188.963 165.278 187.459 167.141 186.102C167.614 185.767 168.097 185.462 168.59 185.167C169.063 184.862 169.537 184.587 170.01 184.361C170.956 183.908 171.883 183.643 172.721 183.692C175.471 182.217 173.194 181.735 173.016 180.486C173.164 179.365 173.864 178.883 174.584 178.401C175.303 177.929 176.102 177.506 176.486 176.68C175.51 175.864 176.959 174.428 175.776 173.317L177.827 171.438C176.989 168.763 175.392 173.69 174.11 173.533C172.839 173.356 173.046 172.874 173.381 172.422C173.696 171.959 174.12 171.507 173.361 171.448C172.178 173.12 172.839 173.936 172.415 174.929C171.725 175.923 170.877 175.982 170.335 175.392C173.263 173.641 170.335 172.933 172.395 171.261L172.819 171.517C172.247 170.966 172.75 170.14 173.43 169.255C173.775 168.812 174.16 168.36 174.485 167.917C174.781 167.455 175.017 167.013 175.076 166.619C178.26 165.429 175.579 169.983 175.934 170.189C176.604 169.186 177.146 168.094 177.758 167.062C177.649 168.95 179.424 168.291 178.911 170.622C179.394 169.57 179.966 169.216 180.488 168.832C181.011 168.448 181.484 168.026 181.681 166.845C182.213 170.278 184.944 165.38 186.304 165.921C185.831 167.229 184.313 168.527 183.012 169.402C181.868 170.091 180.873 170.484 180.636 170.396C180.636 170.346 180.616 170.307 180.577 170.287C180.557 170.346 180.577 170.376 180.636 170.396C180.656 170.632 180.281 171.173 179.769 171.743C179.138 172.431 178.241 173.11 177.62 173.376L178.093 176.178C179.502 174.654 180.587 171.93 181.503 173.671L182.489 170.848C182.755 172.874 182.864 173.877 182.834 174.713C182.785 175.539 182.588 176.208 182.184 177.663C182.105 177.703 182.046 177.752 181.967 177.791L182.065 178.086C182.026 178.224 182.006 178.312 181.967 178.45C180.38 180.87 179.778 180.496 179.286 180.22C178.753 179.925 178.31 179.699 176.673 182.128C176.703 181.843 176.644 181.637 176.614 181.43C176.801 181.115 176.9 180.791 176.939 180.496C176.604 180.899 176.585 181.165 176.614 181.43C176.013 182.482 174.81 183.633 173.854 184.715C172.859 185.747 172.109 186.731 172.484 187.567C172.77 187.282 173.874 186.642 174.929 186.22C175.973 185.777 176.939 185.521 177.038 186.141C176.821 186.495 176.663 186.878 176.693 187.311C177.008 186.731 177.068 186.387 177.038 186.141C177.501 185.393 178.389 184.803 179.226 184.292C180.064 183.781 180.804 183.289 181.02 182.866C178.428 184.243 179.759 182.059 180.587 180.319C182.115 179.424 181.405 181.499 182.647 180.643L185.072 177.506L182.667 179.975L182.075 178.086C182.115 177.939 182.154 177.811 182.193 177.673C184.963 176.296 186.008 173.828 186.886 171.536C187.3 170.356 187.674 169.225 188.226 168.212C188.758 167.19 189.419 166.275 190.483 165.577L190.296 166.314C192.494 162.272 194.269 160.03 196.132 158.752C198.014 157.483 199.848 157.148 201.819 156.873C201.425 158.309 201.021 159.696 200.597 160.915L199.158 160.522C198.714 161.24 198.35 161.958 198.044 162.676C197.719 163.393 197.423 164.092 197.167 164.81C196.664 166.245 196.309 167.711 195.836 169.137C194.969 172.028 193.904 174.969 191.459 177.565C191.026 176.011 193.155 174.29 192.396 174.192C191.095 175.844 191.183 177.034 191.164 178.175C191.114 179.276 190.976 180.358 188.867 181.342C189.754 180.132 189.971 179.64 189.892 179.562C189.813 179.473 189.439 179.798 189.005 180.093C188.128 180.673 187.162 181.243 188.335 178.775C187.595 180.545 186.541 182.138 185.328 183.554C184.056 184.921 182.726 186.21 181.296 187.262C178.487 189.435 175.658 191.009 173.943 192.73C175.5 192.681 173.253 195.041 173.332 195.376C172.238 196.074 172.021 195.071 172.799 194.402C170.325 195.336 169.251 194.569 168.866 193.399C170.148 192.346 171.39 191.255 172.652 190.193C171.133 190.891 169.832 190.645 168.709 191.284C168.827 190.96 168.916 190.655 168.994 190.399C170.128 189.514 170.769 188.914 170.108 188.609L169.369 189.072C169.625 187.98 169.369 188.314 169.093 189.249C168.403 189.858 168.718 190.173 168.827 190.488C168.787 190.743 168.758 190.999 168.718 191.275C168.226 191.56 167.752 191.973 167.279 192.73C166.905 193.625 167.161 193.704 167.565 194.264C167.2 195.11 166.777 196.074 166.284 197.156C165.761 198.208 165.14 199.378 164.421 200.696L164.381 200.362C162.922 201.493 161.345 202.456 159.817 203.499L160.044 202.535L158.94 203.882L157.777 205.171C157.106 203.735 156.545 204.974 156.209 203.912C155.441 203.528 154.711 203.597 153.952 203.932C153.203 204.266 152.395 204.807 151.557 205.456C149.891 206.774 147.9 208.239 145.642 208.446L146.007 207.521C145.199 208.692 143.217 209.291 141.029 209.754C139.945 210.009 138.762 210.088 137.658 210.226L137.609 210.196ZM196.023 162.292C196.368 161.436 196.654 160.561 196.979 159.696L196.437 159.951C196.299 160.728 196.191 161.525 196.033 162.292H196.023ZM191.755 167.465C192.514 166.511 194.831 166.698 193.934 164.928C193.214 164.898 192.435 166.885 191.755 167.465ZM161.355 195.248C161.601 195.09 161.838 194.874 162.006 194.579C161.739 194.825 161.523 195.051 161.355 195.248C160.547 195.779 159.462 195.838 159.098 196.497C160.478 196.457 160.704 195.975 161.355 195.248ZM112.127 213.619C111.063 213.658 110.245 213.658 109.555 213.638C108.865 213.638 108.313 213.638 107.79 213.658C106.735 213.697 105.789 213.766 104.084 213.747L105.178 212.989C104.912 212.37 104.094 212.33 102.98 212.429C102.428 212.478 101.797 212.566 101.136 212.616C100.476 212.645 99.786 212.655 99.096 212.596C99.1847 212.547 99.2734 212.478 99.3424 212.429C99.1354 212.212 98.3567 212.35 97.9624 212.429C98.3369 212.517 98.7115 212.576 99.096 212.606C98.2088 213.156 96.3162 213.619 95.3797 212.566L95.9416 211.74C95.7642 211.298 95.0249 210.954 93.9504 210.649C93.4181 210.491 92.7971 210.354 92.1268 210.206C91.4565 210.049 90.7468 209.872 90.0075 209.695C90.4412 209.518 90.9045 209.291 91.4072 209.036C92.2944 208.574 93.2703 208.269 94.3349 208.259C93.7237 208.269 93.0238 208.141 92.186 207.472C94.0983 206.774 95.9712 205.977 97.7751 205.21C96.5725 204.777 95.7642 205.259 94.8573 205.731C93.9603 206.203 92.9548 206.675 91.4762 206.036C91.7818 205.141 91.9395 204.443 92.4521 203.892C92.9647 203.351 93.842 202.948 95.5473 202.545C98.2482 203.381 95.2023 203.597 96.4838 204.65C97.7356 203.725 98.337 204.286 98.9777 204.807C99.6184 205.338 100.308 205.83 101.59 204.689C104.33 204.807 103.364 206.026 104.192 206.843C101.373 206.774 105.375 208.849 101.757 208.957C104.596 210.314 104.044 207.148 106.41 208.082L106.696 210.049C107.82 210.354 109.604 210.855 111.516 211.013C113.429 211.131 115.449 211.101 116.948 210.324C114.296 209.262 118.367 208.957 117.854 207.826C117.697 208.692 116.721 208.888 115.784 208.77C114.848 208.642 113.971 208.131 113.971 207.747C115.982 207.344 120.96 206.538 122.024 206.803C120.723 206.607 119.432 206.4 118.14 206.105C118.446 205.84 118.968 205.505 119.56 205.151C120.141 204.787 120.812 204.364 121.443 203.971C122.694 203.194 123.779 202.535 123.818 202.378C125.346 202.928 127.426 202.348 128.362 203.253L125.957 205.112L124.794 204.059C124.37 204.669 123.927 205.269 123.473 205.84C124.4 206.046 125.819 206.154 127.17 206.459C128.52 206.754 129.792 207.128 130.334 207.688C126.046 208.426 119.905 210.511 111.575 214.051C111.575 214.051 111.713 213.737 112.098 213.619H112.127ZM122.675 204.591L121.029 205.387C121.354 205.23 123.818 205.692 122.675 204.591ZM98.1792 209.38C97.7652 208.957 97.1541 208.318 97.1442 207.816C96.2078 207.639 95.4389 208.19 94.4334 208.249C95.5572 208.239 96.7696 208.652 98.1792 209.38ZM227.675 123.16C226.276 120.544 224.649 118.282 224.432 112.755C226.749 112.342 223.801 107.641 226.029 107.907C226.118 111.309 226.926 110.582 227.902 109.529C226.966 107.562 225.329 106.441 225.655 102.586C226.966 103.855 227.498 100.354 228.405 104.091C228.306 98.79 227.468 95.9183 225.053 93.7055C221.268 85.9165 227.005 90.6371 223.634 82.7203L224.787 83.6841C224.235 81.9925 223.535 80.3501 222.875 78.6979L222.372 80.7042C221.278 78.8749 220.233 77.0457 219.03 75.305C216.487 72.2464 218.271 77.2522 217.226 77.1047C217.887 77.3014 218.567 77.4981 219.208 77.7145C219.622 80.1731 222.135 83.0645 221.12 83.9201C219.681 80.1338 218.705 81.4713 217.601 80.1731L219.435 83.566L218.587 85.1101C219.07 86.9196 219.474 88.5128 219.908 89.9093C220.332 91.3157 220.884 92.486 221.81 93.44C222.076 91.7779 220.085 91.237 220.677 89.6733C221.879 90.3224 222.796 91.7976 223.624 93.6662C224.422 95.5347 225.004 97.8262 225.743 100.059C225.28 100.255 225.319 101.731 224.826 101.17C224.619 101.101 224.56 100.295 224.56 99.8423C224.136 100.078 223.673 99.5866 223.338 99.5866C222.993 99.5866 222.825 100.049 222.796 102.203C221.209 100.845 218.261 98.1999 217.798 98.4064C217.049 96.115 216.132 92.9187 216.211 90.9322L216.536 91.0108C216.251 88.9259 213.599 85.1494 214.89 84.3823C214.141 83.271 212.613 80.1239 212.948 83.7431C212.051 81.9925 211.204 80.2419 210.198 78.5602C211.598 78.5406 211.923 77.2031 212.396 76.4261C212.879 75.659 213.52 75.4525 215.62 77.862C215.472 77.7046 214.437 75.718 212.613 72.6791C212.712 72.6988 212.81 72.6988 212.919 72.7283C213.116 72.8758 213.313 72.9643 213.53 72.9742C213.767 73.6528 214.013 74.0265 213.609 74.3215C216.122 75.5902 215.452 72.4825 214.141 69.3649L212.475 69.2665C212.278 67.7717 212.199 66.5227 211.943 65.2245C211.657 63.9362 211.213 62.5692 209.932 61.0645C208.365 60.2187 206.847 59.3729 205.279 58.6157C203.692 57.8584 202.135 57.1405 200.577 56.4521C200.035 55.8128 199.414 55.2129 198.833 54.5835C198.852 53.8852 198.172 52.8526 197.778 52.0265C197.384 51.1906 197.206 50.5906 198.369 50.6595C198.675 49.9317 199.74 50.7578 200.469 52.3314C200.469 52.6461 200.134 52.3707 200.134 52.7051C201.149 52.5576 202.174 52.1052 201.741 49.8039C202.845 51.6626 202.845 51.997 204.264 52.8329L203.16 50.9447C203.702 51.5544 204.392 52.1839 205.141 52.7838C205.861 53.4033 206.65 53.9934 207.399 54.495C208.907 55.4883 210.297 56.098 210.829 55.7341C208.729 55.8325 209.104 53.1083 208.375 51.4069C209.419 52.3609 211.884 54.3081 210.819 52.292C210.287 52.1544 208.986 50.9152 208 50.2759C207.004 49.6367 206.403 49.5383 207.349 51.4954C205.9 50.2661 203.771 48.8204 202.953 46.8732C205.122 48.2697 204.658 46.6273 206.048 46.4503C203.889 45.3193 202.884 46.2143 202.204 46.2929C201.553 44.8571 201.11 43.5294 200.735 42.2608C200.331 41.0118 199.966 39.8414 199.523 38.7006C198.665 36.3895 197.295 34.3046 194.348 32.2196C193.539 31.6984 197.778 34.9045 196.427 35.2585C195.156 34.6979 194.328 34.0292 193.736 33.2916C193.125 32.5737 192.751 31.7967 192.406 30.9903C191.716 29.3971 191.193 27.6859 189.163 26.5647L188.788 28.9054C187.487 28.2858 184.776 26.3189 183.337 25.4928C183.445 24.7158 180.478 20.6935 183.682 22.3457C183.002 21.6376 182.361 21.0967 181.75 20.6837C181.129 20.2903 180.537 20.0149 179.966 19.828C178.832 19.4543 177.787 19.4052 176.713 19.3658C175.648 19.3068 174.505 19.3265 173.233 19.0019C171.942 18.6971 170.542 18.0086 168.738 16.8383C170.355 18.0283 171.212 18.7266 172.05 19.2871C172.878 19.8477 173.667 20.2804 174.978 21.1262C171.567 20.2804 174.061 21.6081 172.977 22.5817C172.504 21.5098 170.759 20.3788 169.704 19.6215C168.63 18.8938 168.255 18.5102 170.552 18.9233C169.458 18.1758 167.733 17.1825 166.136 16.3269C164.539 15.4615 162.972 14.9403 162.252 15.0189L163.987 16.6711C162.301 15.8057 160.488 15.2058 158.841 14.9796C157.185 14.7731 155.717 14.8616 154.741 15.2255C158.999 16.8973 159.995 14.5075 165.199 17.4874C167.683 19.6805 167.141 19.7985 166.363 19.8576C165.574 19.9166 164.539 19.9067 165.84 21.7851C167.398 22.0703 168.916 22.4539 170.453 22.8374L168.748 21.5294C169.556 20.8508 171.035 21.8343 172.405 22.6899C173.775 23.5259 174.978 24.352 175.441 23.1718C176.841 25.2862 177.965 26.2795 179.088 27.3909C180.212 28.4923 181.464 29.5545 182.805 31.8853C184.263 32.0229 182.854 30.7936 181.839 29.761C183.741 31.4919 185.446 29.761 187.053 33.1047C187.576 33.8128 187.97 33.5965 187.94 32.9376C187.921 32.2786 187.457 31.1673 186.255 30.1839C187.25 31.0592 188.256 31.8754 189.261 32.7507C190.267 33.626 191.321 34.5111 192.248 35.6617C191.933 34.5603 191.528 33.5276 191.154 32.4557C191.923 33.1736 192.711 33.862 193.441 34.6094C193.037 33.7637 192.593 32.9572 192.149 32.1311C196.713 36.1141 201.149 41.6018 201.415 45.3783C199.227 43.8343 196.792 41.4445 194.426 39.3989C193.214 38.4056 192.021 37.4811 190.888 36.8026C189.764 36.124 188.65 35.7404 187.684 35.7109C187.832 36.36 188.877 36.6944 189.823 37.2254C190.75 37.7663 191.587 38.4941 191.292 39.7824L193.401 39.8808C194.978 40.8249 198.113 43.5983 197.226 44.7981C195.225 43.3229 193.786 42.5853 192.534 42.0936C191.252 41.6313 190.158 41.4248 188.877 41.0019C188.64 41.2085 188.236 41.0118 187.714 40.579C187.684 40.5692 187.664 40.5594 187.635 40.5495H187.694C186.649 39.6447 185.062 38.0319 183.889 37.4123C182.903 36.0551 184.293 36.2026 184.628 36.1043C183.909 34.7865 182.903 33.9309 181.839 33.2326C180.774 32.5442 179.611 32.0524 178.389 31.6394C177.186 31.2165 175.964 30.8035 174.81 30.2232C173.618 29.6823 172.484 28.9742 171.449 27.8826C172.159 26.7516 168.393 24.0471 169.96 24.2536C167.181 22.0605 164.647 22.5227 162.272 22.1884C162.4 20.9 157.727 19.4838 159.867 19.1298C158.625 19.238 157.412 19.3068 156.18 19.4838C155.332 18.7266 153.775 18.1168 152.414 17.5071C151.024 16.9563 149.832 16.3958 149.723 15.6385C147.338 15.1763 148.422 17.2219 145.534 15.5795C145.771 15.3435 145.583 15.0878 146.214 15.373C145.613 14.8419 144.45 14.2813 143.217 13.8978C141.975 13.5339 140.645 13.4356 139.767 13.6814C141.887 14.6846 140.191 14.1633 142.734 15.2058C142.429 15.9237 139.225 16.1597 136.495 14.478C138.772 14.0355 138.111 13.3667 137.096 12.7373C136.091 12.1276 134.77 11.5572 135.874 11.2621C129.21 9.54106 124.843 11.626 119.254 13.0127C118.446 12.9832 117.608 12.9438 116.76 12.8848C115.913 12.8652 115.045 12.8357 114.178 12.816C113.31 12.7865 112.433 12.757 111.556 12.7275C110.678 12.7471 109.811 12.7668 108.943 12.7865C108.086 12.816 107.228 12.8553 106.4 12.9242C105.572 13.0225 104.764 13.1405 103.995 13.2782C102.654 13.5142 101.422 13.8289 100.338 14.301C150.63 8.93132 198.527 41.1199 211.332 91.4534C225.369 146.625 191.913 202.702 136.613 216.707C109.052 223.689 81.264 218.89 58.5921 205.505C58.6414 205.8 58.5428 206.066 58.3851 206.312C58.0007 206.892 57.2811 207.354 57.5571 207.934C54.2844 207.177 53.969 207.688 53.624 208.19C53.2888 208.652 52.8847 209.144 49.4346 207.846C48.2616 209.596 50.5288 211.406 54.0183 213.225C52.3228 211.16 56.9065 211.455 54.8562 208.485C57.5078 209.537 59.292 208.977 60.879 208.869C62.466 208.76 63.9644 208.849 66.2611 211.081L65.995 211.288C66.961 211.219 67.9369 211.072 68.893 210.963C69.8196 211.671 70.7462 212.409 71.7024 213.097C70.2928 213.707 69.0902 213.452 67.9664 213.137C66.8526 212.822 65.8274 212.429 64.7924 212.596C66.2414 214.533 67.8383 214.582 69.5239 214.494C71.2194 214.405 73.0923 213.953 75.3102 214.927C76.7986 216.776 75.5073 216.726 73.7527 216.363C71.9981 216.008 69.7605 215.418 69.376 216.353C70.4998 216.254 72.6585 218.202 72.146 218.664C70.0759 217.444 69.2873 217.494 68.4593 217.425C67.6313 217.366 66.7343 217.228 64.5558 215.635C67.2074 216.048 64.4868 214.868 65.3148 214.228C64.3488 214.563 59.7454 212.704 56.9361 210.619C55.487 211.514 58.9174 213.255 60.6129 214.838C62.8702 215.055 64.6248 216.304 66.3696 217.366C67.237 217.907 68.0847 218.438 68.9423 218.792C69.8196 219.116 70.7068 219.274 71.6334 219.116C75.941 220.562 71.4461 220.611 71.6235 220.877C73.4274 221.968 73.9696 221.801 74.2061 221.408C74.4427 221.014 74.4033 220.385 75.0736 220.424C76.6311 220.641 77.7647 220.985 78.6814 221.408C79.5981 221.821 80.298 222.263 80.9387 222.765C82.2202 223.729 83.2552 224.879 85.4238 225.401C86.449 225.115 87.7403 225.066 89.209 225.165C90.6876 225.214 92.3338 225.401 94.049 225.676C95.774 225.912 97.5779 226.148 99.3325 226.433C101.097 226.679 102.822 226.846 104.38 227.013C103.571 227.672 104.38 228.292 104.715 229C106.686 227.682 107.287 227.249 108.007 226.994C108.727 226.699 109.574 226.64 111.871 225.705C110.57 225.42 109.279 224.997 108.007 224.633C111.142 224.437 113.527 222.322 116.386 223.807C112.581 221.378 121.176 221.693 123.246 220.414C126.43 221.034 129.131 218.565 131.063 219.864L130.679 220.051C132.167 219.923 133.626 219.628 135.105 219.411L135.134 221.958C135.953 222.017 136.781 221.89 137.54 221.663C138.299 221.427 138.969 221.054 139.501 220.68C140.566 219.933 141.039 219.126 140.428 218.91C143.75 218.644 141.985 219.441 142.774 220.424C141.236 221.673 137.796 224.869 136.169 223.109C136.475 223.227 137.185 223.139 137.264 222.804C132.907 223.217 132.374 224.102 132.394 225.076C132.414 226.069 133.035 227.171 130.886 227.879C133.222 227.682 135.184 228.459 137.5 227.249C138.644 226.994 142.961 224.751 144.923 223.217C143.553 224.26 142.35 224.555 141.187 224.633C140.024 224.683 138.89 224.535 137.559 224.368C139.698 224.083 139.639 222.578 141.621 222.883L141.167 223.453L143.148 221.968C143.907 223.325 149.418 220.542 146.579 223.325C149.506 221.978 147.21 221.742 149.743 220.287C147.9 220.768 146.047 221.162 144.203 221.595L143.819 220.06C145.406 218.398 146.234 219.352 148.333 218.536L147.555 216.933C148.954 216.962 150.344 216.933 151.764 216.913C150.877 216.018 153.863 215.34 154.524 214.74C156.781 214.474 156.663 217.562 159.403 214.563L159.078 214.523C159.906 213.766 160.557 213.176 161.365 212.645C162.173 212.104 163.159 211.671 164.588 211.081C164.588 211.426 163.977 212.055 163.662 212.36C165.732 211.662 168.009 209.95 169.951 208.347C170.936 207.57 171.893 206.882 172.79 206.439C173.667 205.967 174.495 205.761 175.274 205.997C175.806 207.334 173.854 207.738 174.672 209.095C171.242 210.098 170.621 211.258 169.862 212.625C169.477 213.284 169.063 213.992 168.255 214.72C167.447 215.428 166.294 216.245 164.322 216.874C163.326 215.399 162.075 216.618 160.655 217.926C159.216 219.185 157.58 220.483 156.18 219.205C157.708 218.762 159.216 217.641 160.202 216.569C161.187 215.477 161.68 214.514 161.355 214.464C160.744 214.838 160.064 215.232 159.364 215.625C158.654 215.999 157.895 216.343 157.166 216.677C155.697 217.326 154.327 217.916 153.321 218.084C155.381 218.497 155.657 220.493 154.898 222.116C155.924 221.477 157.195 220.808 158.694 220.247C159.433 219.962 160.231 219.687 161.049 219.411C161.868 219.116 162.715 218.821 163.573 218.516C164.44 218.221 165.328 217.916 166.215 217.612C167.102 217.287 167.969 216.933 168.837 216.579C169.704 216.225 170.562 215.861 171.4 215.487C172.228 215.104 173.006 214.671 173.746 214.238L171.952 212.852C176.013 208.406 172.435 214.927 176.358 212.507C176.634 211.701 176.88 210.865 177.127 210.049H177.472L179.039 206.548C177.206 207.983 178.98 208.603 176.368 209.4C174.11 210.157 175.55 208.042 175.352 206.685C176.151 206.489 177.62 205.525 178.605 204.945C179.581 204.355 180.163 204.217 179.256 205.849C180.399 204.02 181.553 202.27 182.578 200.421C183.061 201.05 182.312 202.181 182.085 202.869C183.15 201.886 184.125 200.794 185.131 199.752L185.21 200.076C187.231 197.097 190.651 193.635 191.302 190.684C186.225 193.851 191.883 187.469 190.621 187.046C191.361 186.347 192.544 186.475 193.322 187.321C194.091 188.147 194.515 189.77 193.51 191.924C191.765 191.973 190.858 195.366 189.212 197.018C191.913 195.503 191.785 194.068 193.303 192.317C192.889 194.176 196.349 190.891 196.881 191.402C197.147 192.042 197.867 194.028 195.176 195.749C191.952 199.014 193.441 194.746 192.761 195.975C191.637 195.73 190.562 196.851 189.488 198.277C188.433 199.722 187.25 201.355 186.018 202.043C185.683 202.093 186.196 201.325 186.452 200.942C185.594 201.739 184.273 203.007 183.15 204.128C182.036 205.259 181.208 206.371 181.494 207.039C182.824 205.525 184.194 204.059 185.417 202.476C186.679 201.955 184.865 204.65 186.797 204.03C187.585 202.85 188.729 201.699 190.217 200.686L190.395 201.365C193.835 199.673 197.64 195.248 199.848 191.619C198.971 190.262 198.507 188.875 198.083 187.41C197.64 185.934 197.206 184.361 196.408 182.659C199.927 178.017 203.387 173.012 206.876 167.809C206.245 167.593 205.703 167.229 205.329 166.708C206.837 165.537 207.704 162.38 209.094 163.138C208.789 161.938 208.877 160.01 208.818 158.437C208.779 156.873 208.473 155.624 207.586 155.801C207.635 155.595 207.685 155.349 207.734 155.123C210.1 153.746 212.663 151.09 214.634 145.327C214.979 144.186 214.003 143.764 212.485 143.636C213.284 142.554 213.914 141.482 214.259 140.331C214.713 141.374 215.501 142.19 215.117 143.941C216.063 140.941 216.931 137.902 217.621 134.804L218.202 135.65C218.074 134.352 217.976 133.073 217.769 131.795C217.916 133.949 216.842 137.066 215.462 135.994C215.255 133.84 215.659 132.277 215.856 130.733C216.063 129.208 216.201 127.723 215.294 125.894C218.153 126.179 218.685 124.98 220.223 126.327C220.174 126.573 220.115 126.681 220.046 126.74C221.534 128.235 222.766 131.392 222.845 133.772C223.841 129.749 224.038 128.215 224.077 126.809C224.107 126.101 224.127 125.432 224.225 124.488C224.334 123.544 224.472 122.314 224.679 120.515C225.507 120.22 225.931 121.921 226.207 123.504C226.463 125.088 226.66 126.553 227.281 125.727C227.044 126.878 226.847 128.028 226.581 129.169L225.743 132.572C225.773 131.392 225.428 131.195 225.231 130.605C225.536 133.044 225.231 134.657 224.964 136.112C224.698 137.568 224.619 138.895 225.142 140.862C224.511 141.905 224.403 140.961 224.334 140.076C224.265 139.181 224.205 138.325 223.851 139.525C223.929 137.381 222.451 135.05 221.337 133.89C220.558 136.427 220.943 137.253 221.505 138.03C222.076 138.807 222.825 139.525 222.638 141.846C221.909 142.859 221.199 143.862 220.45 144.836C220.164 146.891 221.485 144.413 221.958 144.393C221.712 146.94 220.41 147.589 219.878 149.399C220.391 148.976 221.169 147.855 221.662 148.327C220.647 149.694 220.056 151.149 219.326 152.536C218.607 153.923 217.778 155.231 216.132 156.165C217.788 154.985 218.104 158.958 217.926 160.384C219.366 158.771 220.893 157.158 222.273 155.437C222.717 153.5 223.269 151.798 223.713 150.156C224.186 148.514 224.629 146.96 225.083 145.376C225.477 143.783 225.852 142.161 226.177 140.41C226.463 138.65 226.63 136.742 226.719 134.608L227.537 135.247C229.942 128.766 228.937 125.737 227.675 123.16ZM199.404 89.5061C199.937 89.575 199.887 88.8276 199.769 88.0014C199.523 87.1163 199.257 86.1722 198.981 85.1691C198.705 85.2281 198.409 85.1199 198.054 84.8839C198.172 85.9263 197.936 86.7229 196.713 86.7229C197.512 85.0707 196.841 84.6872 195.984 84.3725C195.116 84.0578 194.032 83.8217 193.835 82.4252C192.287 82.14 193.707 85.7198 194.515 86.3001C196.378 86.6738 197.522 89.8602 199.404 89.516V89.5061ZM192.435 68.1159C192.002 68.5978 191.637 69.0502 191.686 69.8566L193.175 69.6993C192.938 69.1879 192.692 68.6568 192.435 68.1159ZM13.3173 149.861C12.8934 148.612 12.4991 147.343 12.1245 146.075C12.2527 146.822 12.3808 147.579 12.5681 148.317C11.5331 148.169 11.2867 146.852 11.0205 145.524C10.7445 144.196 10.4389 142.878 9.26591 142.623C9.87707 144.56 10.4389 146.498 11.1191 148.415L10.4488 148.307C11.5134 149.428 12.1048 152.054 12.1738 153.038C11.8387 152.998 11.4148 153.254 11.0107 152.251C12.2034 155.772 13.2089 155.919 14.1354 155.909C14.6086 155.909 15.0916 155.84 15.6338 156.126C15.6535 156.126 15.6633 156.145 15.683 156.155C15.0916 154.709 14.5199 153.254 13.9876 151.779C13.4159 151.14 13.2286 150.402 13.3271 149.891L13.3173 149.861ZM67.5327 155.339H85.069C89.14 155.339 91.4467 150.697 88.9922 147.461C83.9945 140.872 81.0274 132.66 81.0274 123.76V75.5607C81.0274 72.7283 79.6967 69.5222 75.5369 69.5222C73.1514 69.5222 70.3519 70.4565 66.8723 72.4726C64.4474 73.879 62.9589 76.495 62.9885 79.2978C63.0969 93.381 63.4715 137.971 63.5799 151.444C63.5996 153.608 65.3542 155.339 67.5229 155.339H67.5327ZM153.361 156.096C161.592 156.096 167.654 149.399 167.654 140.144C167.654 129.848 160.271 125.225 153.459 125.225C144.943 125.225 139.353 132.021 139.353 140.902C139.353 149.782 145.228 156.096 153.361 156.096ZM26.7726 174.654C26.5064 174.713 25.5404 173.877 24.6631 173.199C24.0224 172.215 23.4014 171.232 22.7902 170.219C22.8395 170.071 22.8395 169.845 22.7606 169.481C22.455 169.196 21.8439 168.616 21.5777 168.016C22.4353 167.799 23.3225 168.891 24.1012 169.796C24.8997 170.691 25.6291 171.359 26.0234 170.396C23.8942 167.868 24.0421 167.209 21.7946 166.147C21.1342 164.78 20.6807 163.541 20.3357 162.479C19.9907 161.417 19.833 160.502 19.833 159.725C19.2317 159.027 18.2262 159.342 17.5658 158.388C17.6939 158.604 17.8122 158.811 17.9502 159.066L17.1222 159.489C16.6195 158.378 16.1365 157.257 15.6732 156.126C16.1858 156.421 16.7674 157.03 17.5067 158.279C17.3095 157.955 17.1419 157.522 17.0532 156.873C16.3435 155.595 16.7575 154.06 17.3489 154.414C15.2198 152.093 16.3928 151.582 14.2044 151.975C14.1256 151.907 14.0467 151.828 13.9777 151.749C13.751 151.12 13.5243 150.49 13.3173 149.861C13.4454 149.182 14.0369 148.917 14.8649 149.871C13.8496 148.297 12.8343 146.704 11.9373 145.042C11.9964 145.386 12.0555 145.721 12.1147 146.065C11.7302 144.777 11.3655 143.478 11.0304 142.161C4.0218 114.604 8.86176 86.8213 22.3466 64.1722C21.3116 67.2505 20.5526 70.3779 20.4639 72.8463C19.1726 73.4757 18.7093 74.8329 18.246 76.3573C17.7629 77.8816 17.4475 79.6617 16.4322 81.2647C15.8999 81.609 15.0719 82.5334 14.648 81.6385L14.9832 80.6353C12.8737 85.2182 12.2921 91.1092 12.716 95.6331C11.9964 96.2428 11.2867 96.8624 10.6164 97.5017C9.63063 101.199 10.3699 100.954 11.2275 100.757C11.6612 100.659 12.1245 100.58 12.4203 100.983C12.7061 101.396 12.8737 102.301 12.7554 104.189C10.6065 105.773 11.0797 113.414 9.67992 113.67C9.80807 115.115 9.71935 115.774 10.8135 115.961C10.9811 114.683 10.7248 111.821 11.9471 113.483C12.1738 114.781 12.0358 115.725 11.8683 116.61C11.7302 117.495 11.543 118.321 11.612 119.344C11.3064 119.216 10.3108 117.751 10.5671 118.548C10.7839 119.816 10.9121 121.351 11.2078 123.003C11.474 124.655 11.7302 126.445 12.2034 128.176C12.6371 129.916 13.1497 131.638 13.8792 133.142C14.5889 134.657 15.3578 135.994 16.3731 136.958C15.683 135.306 14.6283 135.306 14.7762 132.877C15.5648 132.788 15.6535 134.037 16.1463 134.46C16.8462 134.185 16.4914 133.644 16.0478 132.837C15.6042 132.031 15.0226 130.959 15.4366 129.671C16.1562 130.939 17.0335 132.169 17.832 133.378L18.798 130.949C19.7048 132.316 20.5822 133.663 21.5087 134.971L24.3871 138.768C24.2392 136.978 23.7464 135.532 23.1056 134.234C22.5339 132.926 21.7847 131.775 21.075 130.634C20.3653 129.494 19.7936 128.353 19.3993 127.123C18.9951 125.894 18.9261 124.547 19.3204 123.032C19.8428 123.937 20.1681 122.993 20.523 122.737C20.7497 123.209 20.9962 123.652 21.351 124.035C21.0257 122.718 20.7694 122.57 20.523 122.737C19.6161 120.918 19.6358 118.666 18.6205 117.515C18.591 116.502 18.6501 115.499 18.6895 114.486C19.5077 114.545 21.3215 115.735 21.3905 118.715C21.3707 113.483 20.6512 108.802 20.5624 103.992C20.454 99.2129 20.8483 94.2857 23.1451 89.3094C23.6379 88.9849 23.1549 90.824 23.6379 90.1159C23.6379 88.8177 23.8351 86.8115 23.5788 86.2509C23.8252 86.5164 24.1012 86.9491 23.9041 87.6966C24.0322 86.9983 24.1998 86.3591 24.3871 85.7591C24.604 85.1691 24.8405 84.6282 25.087 84.1266C25.5897 83.1136 26.1121 82.2384 26.6543 81.4418C27.2063 80.655 27.709 79.9174 28.1132 79.1503C28.3103 78.7668 28.4779 78.3734 28.6159 77.9505C28.7638 77.5374 28.882 77.1145 28.951 76.6425C29.4341 76.7703 29.2665 77.4489 29.0496 78.0685C28.8525 78.6979 28.6159 79.2585 28.8722 79.1306C29.5819 77.9603 30.1438 76.908 30.4789 75.8262C30.6564 75.2853 30.7944 74.7542 30.9028 74.2133C31.0408 73.6921 31.1591 73.161 31.2774 72.63C31.514 71.5678 31.7012 70.4565 32.066 69.3452C32.4405 68.2437 32.9433 67.0931 33.6924 65.9129C33.7713 67.0734 34.2444 66.9948 34.8655 66.5424C35.5062 66.0998 36.3342 65.2934 37.0932 64.9197C37.2904 64.3689 37.5467 63.7592 37.8424 63.1101C38.1775 62.4708 38.5521 61.7923 38.976 61.0743C39.7843 59.6188 40.8489 58.0944 41.9726 56.5209C42.5148 55.7145 43.1456 54.9572 43.7568 54.1704C44.3778 53.3935 44.9692 52.5871 45.61 51.8396C46.9013 50.3645 48.1039 48.8303 49.2868 47.5321C49.7599 49.4203 51.1991 48.1615 52.8551 46.6962C54.5506 45.2898 56.4531 43.6376 57.5768 44.6899C58.8188 43.8441 60.4059 42.0247 59.9623 41.0511C59.5483 41.946 57.3796 42.4574 57.2416 41.8084C58.9174 40.2545 61.8352 38.3958 61.3522 37.0189C62.397 36.8911 63.4813 36.8714 64.5262 36.8026C64.1221 35.7798 64.2404 34.1472 65.65 33.3899C70.0956 34.2456 64.3882 31.8263 69.6225 30.8723C69.0803 32.4163 68.5776 33.6456 68.6269 34.6291C70.8744 33.7833 70.2632 33.3113 71.7024 32.3672C72.56 32.9179 71.1701 35.1602 69.8886 36.5272C70.9039 36.3305 71.8995 36.0945 72.9247 35.9568C73.8611 34.5996 75.2116 32.7605 77.0352 31.2853C78.8194 29.7216 81.0471 28.5022 83.4031 28.0006C82.9693 29.2299 81.5302 29.6921 83.1369 30.6461C84.0142 30.115 84.9802 29.2496 86.0843 28.512C87.1883 27.7842 88.4402 27.145 89.8695 27.3417C89.5343 27.5384 89.8005 27.6662 89.4752 27.8629C91.5945 26.6041 92.5014 26.4861 93.3688 26.6336C94.2461 26.8008 95.1037 27.1942 97.2034 26.909C97.1639 27.0663 97.1738 27.2728 97.0851 27.4597L96.3753 27.9121C96.8288 27.8039 97.0062 27.6465 97.0851 27.4597C97.8736 26.9483 98.682 26.5156 99.4903 26.073C100.762 25.2862 101.807 24.9125 102.684 24.8929C103.571 24.883 104.291 25.1486 104.941 25.5321C106.243 26.2992 107.258 27.5285 108.855 28.0203L108.165 28.2661C109.18 29.1119 111.24 28.9841 113.281 28.9841C114.306 28.9644 115.331 28.8857 116.198 28.9152C117.076 28.9545 117.805 29.0431 118.239 29.2496C116.09 28.0104 117.588 28.1481 116.031 26.2304C113.99 26.5746 114.542 28.7185 111.26 27.9416C111.664 26.2402 115.942 25.7091 116.928 24.4798C118.87 24.529 119.905 27.322 119.974 28.3055C121.127 28.3645 122.142 28.5218 123.108 28.689C123.591 28.7775 124.055 28.866 124.528 28.9545C124.991 29.0726 125.455 29.1906 125.918 29.3086C126.854 29.5446 127.82 29.761 128.914 29.9675C129.989 30.2134 131.192 30.4396 132.601 30.6068C133.725 30.2527 134.898 29.3578 136.327 28.9545C137.757 28.5218 139.432 28.7382 141.354 30.6068L141.088 30.892C141.374 30.7149 141.818 30.9018 142.311 31.1772C142.922 31.5214 143.602 31.9246 144.213 31.7082C143.277 29.4266 146.608 31.3542 145.278 29.0431C148.087 29.9478 147.525 32.4655 147.2 33.9013C148.59 33.1933 149.792 33.9899 151.084 35.1798C151.734 35.7601 152.434 36.3993 153.242 36.9304C154.051 37.4713 154.938 37.9729 156.052 38.1794C155.46 38.4449 154.13 38.0417 153.085 37.8647C152.02 37.7073 151.261 37.727 151.833 38.6711C153.863 38.6318 155.894 38.7301 157.994 38.8186C157.284 38.4056 156.554 38.022 155.845 37.6287C158.161 37.8057 159.285 38.622 160.014 39.5759C160.754 40.5299 161.118 41.6018 161.877 42.6246C161.838 43.5097 160.438 42.8017 159.443 42.1821C159.295 42.0837 159.137 41.9657 159.009 41.8575C159.108 41.9657 159.305 42.0739 159.443 42.1821C160.478 42.9 162.262 43.8441 163.977 44.3063C163.583 44.2768 163.336 44.3457 163.395 44.6112C164.036 44.5424 164.391 44.6506 165.022 44.6112C164.706 44.5424 164.342 44.4047 163.967 44.3162C165.436 44.4047 169.517 46.3224 171.735 46.5388C171.883 46.7355 172.04 46.9223 172.188 47.119C172.04 47.178 171.863 47.2076 171.725 47.1485C172.031 47.3452 172.307 47.4829 172.573 47.5911C173.056 48.1812 173.499 48.8106 173.972 49.4105L173.411 49.3515C172.06 48.5942 170.473 47.7189 168.452 46.883L171.617 49.1745C168.797 49.0073 166.106 48.8794 163.386 48.9778C163.238 48.8303 163.07 48.5942 162.903 48.3877C163.139 48.1615 163.257 47.9058 163.129 47.6403L162.567 47.9746C162.686 48.1517 162.784 48.25 162.893 48.3877C162.607 48.6631 162.124 48.8893 161.503 49.0368C160.685 49.0565 159.827 49.145 159.009 49.204C158.437 49.145 157.875 49.027 157.382 48.8008C157.432 47.6698 157.274 47.0502 157.451 46.6962C157.639 46.3323 158.161 46.1946 159.561 46.0864C157.244 45.693 157.047 47.4731 154.376 45.8602C155.904 45.7029 157.402 43.9916 154.829 42.2017C152.888 41.6608 151.025 41.3855 149.161 41.4051C148.235 41.4051 147.338 41.4248 146.431 41.5133C145.524 41.6117 144.627 41.7494 143.75 41.887C140.231 42.4476 136.85 43.4311 133.39 43.7753C133.488 43.0377 132.276 42.4378 130.748 41.8772C129.21 41.356 127.347 40.9528 126.164 40.5397C127.406 39.1727 129.358 39.1629 131.359 39.3202C131.556 39.389 131.783 39.4776 131.931 39.5267C131.97 39.4776 131.97 39.4382 132 39.3792C133.025 39.5071 134.06 39.6152 135.016 39.6054C135.962 39.6152 136.83 39.4579 137.569 38.9662C138.663 39.7628 140.931 39.3694 142.281 40.5004C142.33 40.6479 142.458 40.7954 142.715 40.9626C142.596 40.7757 142.439 40.638 142.281 40.5004C141.916 39.4776 145.583 38.799 141.354 38.2384C141.709 38.2581 141.581 38.0024 141.926 38.0122C139.836 35.9371 138.121 37.491 135.982 36.7829C134.918 35.5732 138.516 36.2518 137.382 35.5339C137.007 35.5044 136.603 35.4257 136.169 35.3175C135.736 35.229 135.272 35.1012 134.799 34.9635C133.853 34.6979 132.867 34.3537 131.951 34.1374C130.097 33.7637 128.569 33.744 128.353 35.2585C126.292 35.052 126.135 34.3832 125.622 33.7145C124.676 34.3636 123.483 34.4718 122.192 34.4226C120.91 34.3439 119.54 33.9997 118.239 33.8128C115.656 33.3309 113.429 33.2031 113.409 35.2684C113.99 35.1995 114.759 35.1995 115.597 35.1208C116.435 35.0815 117.352 34.9537 118.249 34.5701L117.993 37.4221C120.477 37.4811 118.485 35.2192 122.054 35.6519L121.019 35.3864C123.72 34.6979 128.175 35.9961 131.182 36.6452C130.639 37.3926 132.719 38.1597 132.01 39.3694C131.803 39.3497 131.586 39.33 131.379 39.3104C130.797 39.0743 129.969 38.8973 129.112 38.6515C128.244 38.4351 127.357 38.1499 126.578 38.0024L125.366 40.9331C121.955 40.4905 122.448 39.9595 123.453 39.3792C124.449 38.8186 125.987 38.2286 124.42 37.6483C123.414 37.5992 122.694 37.8844 122.083 38.1892C121.462 38.4941 120.94 38.8088 120.319 38.917C123.138 38.7695 122.813 39.6939 122.487 40.6774C122.162 41.6707 121.847 42.6443 124.528 42.8213C123.956 43.8146 122.941 44.1785 121.847 44.2768C120.753 44.385 119.58 44.1392 118.732 43.7359C117.825 42.6541 118.298 42.2903 119.097 42.0051C119.895 41.7395 121.019 41.5133 121.393 40.5495C119.166 40.6085 119.511 40.9921 118.485 42.0542C116.819 41.7002 115.035 42.1427 113.468 42.4771C112.679 42.6246 111.95 42.6738 111.28 42.5558C110.609 42.4476 110.018 42.1132 109.495 41.415C107.061 41.8969 107.278 42.9393 105.976 44.0998C105.927 45.2013 106.814 45.4275 107.82 45.575C108.638 45.7324 109.525 45.87 110.077 46.3618C110.176 46.529 110.314 46.6863 110.412 46.7847C110.323 46.6175 110.205 46.4896 110.077 46.3618C109.998 46.2241 109.939 46.0667 109.978 45.9291C110.649 46.0864 111.309 46.1749 111.97 46.3716C111.033 45.9586 111.092 45.4472 111.526 44.9554C111.96 44.503 112.778 44.1293 113.3 44.0506C114.059 44.0211 115.568 43.9621 115.321 44.5817C114.937 44.6997 114.552 44.8669 114.168 45.0144C114.878 45.3587 115.686 45.0341 116.534 44.7587C117.371 44.4932 118.239 44.2473 118.939 44.9358C118.968 45.4373 118.367 45.5848 118.249 45.8995C120.102 44.6407 121.768 44.8571 124.498 44.3162C123.867 44.9456 123.256 45.5652 122.655 46.1946C125.05 44.1097 129.664 45.8209 132.335 47.9746C132.108 47.5223 131.546 47.1092 132.049 46.8043C134.05 46.8732 134.918 48.7713 133.725 49.5679C134.297 49.2925 134.977 49.3515 135.696 49.6465C136.416 49.9514 137.185 50.4333 137.973 50.9054C138.762 51.3676 139.541 51.9183 140.339 52.2035C140.743 52.351 141.147 52.4592 141.552 52.4789C141.956 52.5281 142.35 52.4986 142.764 52.3805C147.841 50.7382 153.302 49.6662 159.029 49.204C159.896 49.2925 160.803 49.204 161.523 49.0368L163.395 48.9778C165.042 50.6103 165.909 48.6729 168.107 50.4628C167.398 49.9219 166.806 50.2169 166.52 50.3645C167.792 51.4266 169.073 52.4789 170.266 53.6295C170.867 54.1999 171.488 54.7507 172.09 55.3211L173.825 57.0913C174.101 56.4127 172.661 53.7377 174.308 54.849C174.258 53.6689 171.843 52.3019 170.946 52.7149L172.188 52.4691C170.877 52.1544 170.394 51.2496 170.394 50.4726C170.394 49.7154 170.936 49.0663 171.784 49.2925L171.626 49.1646L173.42 49.3417C173.696 49.4793 173.963 49.617 174.239 49.735C174.722 50.3448 175.195 50.9644 175.678 51.5839L175.274 51.4561C175.027 51.8691 176.516 54.8884 177.413 53.9541C176.841 53.1673 176.259 52.3805 175.668 51.5839L176.92 52.0265L176.555 51.5544C177.304 50.9644 178.418 50.925 179.65 51.3774C180.261 51.6036 180.912 51.938 181.513 52.4101C182.115 52.8919 182.696 53.4722 183.219 54.1606C183.179 54.0426 182.903 53.6099 182.45 52.9411C182.006 52.2625 181.356 51.3676 180.537 50.3448L181.602 50.5415C182.814 52.0658 183.869 53.6492 184.944 55.1146C185.939 56.6488 186.925 58.1141 187.802 59.5598C186.777 58.7829 185.732 57.9961 184.934 56.7078C185.101 57.7207 185.584 58.6255 186.215 59.4615C186.836 60.2974 187.526 61.1235 188.206 61.8808C189.586 63.3953 190.631 64.8902 190 66.2867C187.615 64.6049 186.225 63.2084 185.003 61.6054C184.392 60.8088 183.741 60.0319 183.031 59.1762C182.676 58.7534 182.292 58.3108 181.868 57.8584C181.434 57.4159 180.942 56.9733 180.409 56.5111C180.183 54.7999 181.001 55.2719 182.006 56.1275C183.041 56.9536 184.116 58.2616 184.608 57.9863C184.076 57.0225 183.534 56.0587 182.933 55.1441C182.637 55.685 181.454 54.613 180.252 53.7869C179.029 52.9805 177.758 52.4789 177.403 53.9442C178.477 55.3113 179.414 56.7864 180.439 58.1436C181.405 59.5401 182.361 60.9268 183.297 62.2938C184.175 63.7002 185.092 65.0278 185.939 66.3555C186.767 67.693 187.576 68.9813 188.364 70.2303C186.018 70.545 183.613 70.9679 181.296 71.4203C178.96 71.8924 176.713 72.3841 174.416 72.9939C174.879 72.6693 173.864 72.1186 172.888 71.4203C173.509 71.263 174.239 71.0466 173.371 69.9845C172.928 68.588 171.912 68.0077 170.926 67.575C169.941 67.1324 168.876 66.9161 168.344 66.0801L168.925 66.3752C168.176 64.5656 166.343 62.9626 164.608 62.7167C165.16 60.0122 168.738 66.208 168.147 62.7364C168.63 63.7297 169.606 64.5361 170.66 65.2245C171.735 65.9031 172.799 66.5424 173.342 67.1521C173.016 66.5325 172.799 65.8539 172.642 65.2049C172.474 64.5558 172.405 63.9165 172.415 63.3363C172.445 62.1758 172.829 61.2612 173.598 61.1235C172.326 60.1794 171.4 60.0024 170.749 60.1007C170.098 60.2089 169.684 60.6514 169.29 61.0842C168.511 61.9594 167.831 62.8446 165.761 61.3497L163.533 58.6157C162.666 58.9697 161.789 59.3631 160.931 59.7467C159.344 58.4387 163.257 59.0189 160.685 57.1012C159.305 57.4257 158.299 55.3801 157.343 55.5965C157.747 55.2031 158.191 54.6917 156.88 53.6787C156.614 53.8656 156.16 54.7409 155.115 53.9934C155.825 51.4069 158.132 55.5079 158.24 52.7739C155.155 50.571 155.027 53.1673 154.041 53.6295C154.179 53.6492 154.277 53.8557 154.544 54.1016C154.061 54.7408 153.193 53.2853 152.789 54.1901C153.242 54.613 153.863 54.7605 154.435 54.8687C153.765 54.8884 153.893 55.4883 154.287 56.1472C154.484 56.4816 154.751 56.8258 155.027 57.1307C155.283 57.4552 155.549 57.7306 155.756 57.8978C158.526 58.3206 162.025 62.1168 164.598 64.3099C164.302 64.1821 163.731 63.9264 163.731 64.4574C164.578 65.3032 165.288 66.0408 165.889 66.7587C166.471 67.5061 167.003 68.1847 167.545 68.883C168.117 69.5616 168.61 70.3287 169.28 71.0958C169.615 71.4793 169.97 71.8924 170.355 72.3349C170.729 72.7873 171.143 73.2594 171.607 73.7708L173.48 73.2594C174.919 75.2165 176.259 75.0689 177.462 74.4592C178.645 73.8593 179.601 72.8267 180.153 73.2299C180.942 74.0953 182.4 74.4002 182.115 75.7475L181.218 75.6394C182.331 76.8785 182.893 76.8687 183.327 76.8785C183.761 76.8785 184.076 76.908 184.648 78.2849C186.757 79.9076 183.918 76.2589 185.584 77.1342C186.669 80.1829 189.784 77.2916 190.454 82.6809C189.803 82.7006 188.709 84.0283 187.26 81.4713L187.221 84.5888C185.2 81.845 186.284 83.5857 184.658 80.6157C182.272 80.0748 181.405 80.9304 179.384 80.4485C180.35 81.2943 181.543 80.419 182.322 82.081C182.844 84.284 181.365 82.1499 180.695 82.2482C182.341 83.0546 182.193 84.0381 182.085 84.9232C181.947 85.828 181.829 86.6443 183.219 87.4704C185.003 86.1919 185.19 86.6836 185.663 84.3823C187.093 85.8772 186.6 88.6997 184.776 89.1619L186.521 88.9259C186.304 89.4766 186.728 90.9223 186.353 91.1485L185.624 90.9223C186.008 91.1878 186.225 91.237 186.353 91.1485L187.349 91.4829C187.743 90.6174 187.999 89.8602 187.98 89.0439C187.96 88.2375 187.595 87.4114 186.856 86.3886C188.295 86.9098 189.025 84.0086 190.592 86.9295C191.104 88.2571 189.744 87.4212 189.31 87.6867C190.247 89.2799 190.631 90.5978 190.819 91.7091C190.986 92.8302 190.828 93.7743 190.7 94.6496C190.454 96.4002 189.981 97.9442 191.095 100.57C190.562 99.9701 190.365 98.79 190.089 97.4525C189.803 96.1248 189.301 94.6791 188.364 93.5678C187.339 95.5151 189.823 96.7346 189.931 98.3376C188.867 97.1574 188.236 97.1181 187.911 98.8293L189.064 99.2424C189.281 100.187 189.774 101.858 189.271 102.085C189.222 102.085 189.172 102.114 189.123 102.104C189.084 102.104 189.025 102.085 188.975 102.075C188.788 101.996 188.581 101.868 188.325 101.652C188.601 101.888 188.808 102.016 188.975 102.075C189.034 102.104 189.084 102.094 189.123 102.104C189.182 102.104 189.232 102.104 189.271 102.085C189.646 102.055 189.882 101.583 190 100.659C190.947 101.711 191.765 103.373 192.327 105.35C192.573 106.343 192.761 107.405 192.879 108.497C192.987 109.588 192.928 110.719 192.839 111.821C191.735 111.732 191.311 110.218 190.986 109.136C190.592 108.064 190.326 107.425 189.685 109.047C189.971 109.893 190.69 110.621 191.252 111.545C191.528 112.008 191.765 112.519 191.864 113.109C191.933 113.699 191.864 114.378 191.578 115.145C190.296 113.886 190.306 116.551 189.517 116.512C190.414 117.889 191.193 119.305 192.051 120.77C191.637 122.826 191.331 125.157 191.745 127.133C191.578 126.465 191.676 125.638 191.893 124.625C193.066 126.209 192.632 127.566 192.061 128.943C191.39 130.32 190.582 131.716 190.72 133.634C190.572 133.014 190.375 132.405 190.178 131.795C189.133 134.401 189.429 136.702 189.586 139.082L188.078 138.581C190.168 139.456 189.123 144.275 189.31 145.534C189.784 141.974 190.641 140.705 191.42 139.368C191.814 138.709 192.228 138.05 192.514 137.115C192.77 136.171 192.938 134.942 192.908 133.201C193.717 134.676 194.101 135.916 194.456 137.194C194.821 138.482 195.038 139.771 195.639 141.472C195.215 142.515 194.702 142.81 194.21 142.741C194.712 143.882 195.954 144.58 195.944 146.458L194.959 146.675C193.628 148.838 194.081 150.215 194.495 151.602C194.88 152.969 195.333 154.405 193.943 156.47C192.81 156.47 192.711 155.231 192.78 153.598C192.83 152.782 192.948 151.877 193.046 150.972C193.145 150.068 193.175 149.153 193.155 148.376C193.244 148.327 193.303 148.307 193.401 148.238L193.155 148.376C191.883 149.074 192.09 147.894 192.189 146.743C192.307 145.593 192.189 144.452 190.552 145.209L191.242 146.92C190.7 148.258 189.744 147.697 190.01 146.861C189.715 148.75 189.488 148.179 190.178 149.212C188.808 152.585 188.285 152.133 187.654 151.612C187.339 151.356 186.994 151.081 186.491 151.238C186.245 151.317 185.969 151.503 185.634 151.857C185.279 152.202 184.865 152.693 184.382 153.411C184.254 152.477 185.161 150.844 183.928 150.667L185.831 147.57L184.392 146.901C183.416 148.917 183.169 150.756 183.199 152.438C183.228 153.293 183.366 154.119 183.573 154.936C183.78 155.752 184.017 156.539 184.332 157.325C184.727 155.113 185.082 155.182 185.653 155.634C186.215 156.076 186.905 156.903 187.753 156.047C188.078 157.178 187.3 157.699 186.659 157.906C186.58 157.729 186.373 157.748 185.939 158.063C185.939 158.063 186.274 158.034 186.659 157.906C186.905 158.407 186.067 160.492 186.955 160.669C185.082 160.207 182.834 161.928 180.843 163.216C178.773 164.475 176.989 165.311 176.003 163.334C175.431 163.698 174.761 164.397 174.091 165.351C173.746 165.823 173.411 166.363 173.046 166.944C172.661 167.504 172.277 168.104 171.873 168.734C170.305 171.281 168.344 174.064 166.412 176.07L166.747 174.241C165.939 174.438 165.328 174.674 164.835 174.929C164.332 175.165 163.967 175.441 163.711 175.736C163.198 176.336 163.09 177.054 163.119 177.831C163.188 179.394 163.721 181.135 162.666 182.62C163.445 181.135 162.646 181.243 161.483 181.696C160.33 182.168 158.684 182.836 157.885 182.748C157.185 184.066 156.604 185.384 155.805 186.692C155.027 188.029 153.913 189.17 152.188 190.075C150.748 189.15 149.418 186.928 147.259 187.862C146.993 188.511 146.727 189.18 146.431 189.829C145.307 190.252 144.144 191.058 143.02 191.727C141.867 192.337 140.773 192.809 139.886 192.632L140.152 192.405C138.762 192.533 138.22 193.074 138.299 193.615C138.368 194.136 139.077 194.638 140.132 194.382C139.432 194.992 138.693 195.533 137.964 196.123L137.727 195.68C134.77 197.726 132.197 201.021 126.568 202.496C127.751 200.706 121.876 200.342 126.756 199.014C125.474 200.017 127.83 200.401 128.264 200.981C130.166 200.903 131.408 198.896 132.138 198.542C132.276 198.68 132.473 198.778 132.69 198.768C132.542 198.454 132.355 198.424 132.138 198.542C131.339 197.844 131.349 195.661 131.921 194.235C131.27 195.12 130.107 195.69 128.767 196.211C127.426 196.762 125.878 197.077 124.42 197.46C122.97 197.883 121.581 198.159 120.536 198.709C119.491 199.26 118.771 199.968 118.663 201.021C114.237 201.237 108.322 202.26 103.285 200.962C103.482 201.158 103.857 201.561 103.709 201.857C102.28 201.178 100.91 200.322 99.5494 199.555L100.584 199.319C99.6973 198.759 98.82 198.247 97.9722 197.618C97.8046 196.89 98.9678 196.467 100.111 196.418C100.782 196.27 101.304 196.89 100.644 197.047C103.749 196.074 98.2975 196.093 100.397 194.864C101.067 195.199 102.033 194.972 102.526 195.11C100.949 194.343 99.7071 194.638 98.6327 194.667C97.5582 194.717 96.6415 194.628 95.8726 193.31C94.9756 193.831 93.6547 194.245 92.1958 194.323C90.7468 194.392 89.1893 193.979 87.898 193.015C89.2978 192.464 84.7141 192.16 86.7348 190.861C86.0448 191.127 85.1478 190.763 84.3494 190.399C83.5608 190.026 82.8412 189.721 82.4075 190.203C82.9595 189.957 84.1522 190.478 84.8718 191.176C83.5411 191.206 83.0186 192.15 81.6485 191.402C81.5302 191.156 81.747 190.92 81.747 190.92C79.4995 191.127 79.6376 194.304 76.2663 192.828C71.7122 191.117 72.5304 190.301 74.3047 189.819C75.1919 189.563 76.2959 189.386 77.1338 189.15C77.9815 188.904 78.5434 188.649 78.3364 188.334C78.1688 188.511 77.7844 188.58 77.2915 188.56C76.8085 188.531 76.2072 188.383 75.596 188.186C74.975 187.98 74.3441 187.705 73.7823 187.38C73.2303 187.046 72.7768 186.633 72.4811 186.229L73.0627 186.072C72.0868 185.915 70.4604 185.944 70.1055 184.616C68.8438 185.61 67.1286 186.249 65.9851 186.741C64.7037 186.082 63.5208 185.256 62.2689 184.518L63.4912 184.341C62.4858 184.076 61.7366 183.623 61.0367 183.122C61.4507 181.951 62.2295 183.023 63.5799 183.358C63.5996 182.738 63.4321 182.315 63.0772 182.099C62.7322 181.863 62.19 181.823 61.4507 181.971L61.8253 182.345C60.5931 182.227 56.2559 181.056 58.5822 183.358C57.2416 183.063 56.8276 182.276 56.5221 181.548C56.2165 180.811 56.0489 180.083 55.2209 179.768C55.7433 178.932 57.0741 179.689 56.9361 178.598C55.8616 177.427 55.2406 176.572 53.9493 176.041C54.6492 177.142 53.0424 176.444 54.1366 178.244C53.21 178.106 51.5244 176.847 51.2582 177.241C51.899 177.545 52.5298 177.545 52.9537 178.794C50.9527 177.693 49.3163 176.001 48.3306 173.838C48.5573 173.749 48.8629 173.759 49.1882 173.808C49.5135 173.907 49.8585 173.975 50.1936 174.015C50.8639 174.172 51.4258 174.31 51.416 174.025C51.0019 174.093 50.5978 174.054 50.1936 174.015C49.8585 173.936 49.5135 173.857 49.1882 173.808C47.6209 173.277 46.1028 172.136 44.7524 170.996C43.4118 169.855 42.0613 168.852 40.701 168.596L40.908 169.56C40.8094 169.52 40.7207 169.461 40.632 169.461L40.9277 169.668L40.908 169.56C41.7853 169.815 42.7711 170.917 42.7415 171.704C40.8982 170.228 42.3768 174.113 40.1884 172.707C38.7493 171.664 38.0691 170.13 37.3594 168.901C36.6299 167.681 35.9793 166.659 34.55 166.462C36.0878 169.343 37.9114 173.602 39.528 174.044L38.2662 172.333C39.9913 173.051 41.6177 173.789 43.3231 174.398C42.7218 175.165 46.507 177.123 45.334 178.106C44.0032 177.103 43.0471 175.933 42.0613 175.087C41.7557 175.746 44.6834 178.676 45.7973 180.024L44.6834 178.057C48.2813 180.004 51.5737 183.682 55.1026 185.275C53.5944 184.803 54.1169 185.62 54.728 186.485C55.3589 187.321 56.0489 188.216 54.6984 188C53.3776 188.078 53.003 186.033 53.1213 186.613C52.5594 187.055 52.9537 187.488 53.4959 187.97C54.0577 188.432 54.7477 188.934 54.7379 189.583C55.1815 189.347 56.2559 189.73 57.0544 189.878C57.8725 190.016 58.4147 189.927 57.8134 188.836C58.1189 189.465 59.0751 189.858 60.0214 190.33C60.9677 190.802 61.9239 191.343 62.3872 192.199C62.8702 190.537 65.6007 192.996 66.5174 192.651C67.1089 193.084 67.4933 193.674 67.7397 194.245C66.9216 194.097 66.0147 193.93 65.0487 193.753C64.0728 193.546 63.0476 193.33 62.0027 193.114C61.4409 192.484 60.2087 191.609 60.3664 192.169L59.9918 192.661C57.9021 192.13 55.7335 191.599 53.9 190.979C52.9734 190.684 52.0961 190.409 51.3371 190.144C50.5879 189.858 49.9275 189.593 49.405 189.376L50.7358 189.406C48.8925 189.15 47.6209 188.137 46.5267 186.957C45.403 185.787 44.2989 184.616 42.6232 183.958C42.9386 183.84 43.2738 184.026 42.8992 183.545C42.2486 182.768 41.5586 182.237 40.8686 181.823C40.1884 181.401 39.5378 181.066 38.8971 180.742C37.6452 180.073 36.4821 179.414 35.9892 177.693L36.9454 177.437C36.6891 177.29 34.895 176.247 34.343 177.172C35.3485 178.155 35.9991 178.686 36.5905 179.227C37.2016 179.748 37.7241 180.279 38.4437 181.302C37.1524 181.096 35.1217 179.866 34.1163 178.549L34.3726 178.401L34.0374 178.47C34.0374 178.47 34.0966 178.529 34.1163 178.549L32.756 179.404C31.4351 179.08 30.8634 178.116 30.3804 177.113C29.8974 176.11 29.4242 175.116 28.1033 174.723L28.7342 177.427C28.6356 177.408 28.4877 177.27 28.3497 177.172C27.9752 176.768 27.5907 176.355 27.2063 175.952C26.8613 175.441 26.6149 174.92 26.7627 174.634L26.7726 174.654ZM188.877 104.051C188.965 105.556 190.799 106.51 191.134 106.068C191.016 105.074 190.779 104.091 190.592 103.107C189.192 104.12 190.809 103.914 190.671 105.694C190.119 105.123 189.478 104.583 188.887 104.042L188.877 104.051ZM186.353 147.029L186.846 146.448L187.171 148.337L187.408 150.225C187.191 147.707 189.074 142.583 187.073 142.288C186.196 143.813 185.86 145.898 186.353 147.038V147.029ZM179.207 158.319C179.207 159.558 180.321 159.273 181.326 159.096C182.331 158.929 183.238 158.879 182.686 160.797C183.652 159.932 183.987 159.43 184.017 159.155C184.047 158.879 183.771 158.82 183.445 158.781C182.795 158.702 181.937 158.673 182.913 157.168C183.12 156.932 183.317 156.667 183.504 156.362C183.258 156.676 183.071 156.942 182.913 157.168C181.513 158.801 179.532 158.761 179.197 158.319H179.207ZM119.787 37.6975L119.964 37.9139L121.916 37.4516L121.748 37.2353L119.796 37.6877L119.787 37.6975ZM136.002 42.4476L133.902 42.3001L134.03 42.5263L136.002 42.4476ZM146.283 39.2809C147.032 39.4186 147.791 39.5464 148.531 39.7431L147.712 39.3989L146.283 39.2809ZM136.327 32.1508C137.116 33.3113 139.265 33.3408 140.014 33.3309C137.727 32.6228 138.831 32.5638 136.327 32.1508ZM105.769 198.306L104.784 198.582L104.498 199.172L105.769 198.316V198.306ZM106.292 195.356L104.616 194.835L103.699 195.612L106.292 195.356ZM134.918 195.139C133.331 195.769 133.774 196.221 134.237 196.684C134.287 196.762 134.356 196.851 134.484 196.949C134.405 196.861 134.316 196.772 134.237 196.684C133.804 195.867 137.244 195.651 134.918 195.139ZM153.913 183.387L153.518 183.928C153.469 184.528 153.43 185.148 153.361 185.738C153.568 184.961 153.735 184.164 153.913 183.387ZM106.864 46.8928C107.77 46.9617 108.037 46.824 108.579 46.588C108.391 45.5947 107.583 46.7847 106.864 46.8928ZM98.9678 45.8602C99.1551 46.1848 100.289 46.1848 101.383 45.9881C102.477 45.7914 103.522 45.2603 103.512 44.3063C101.334 43.3229 106.174 42.3099 102.3 42.2411C101.807 41.1494 103.482 39.3497 105.415 39.8414C105.346 40.9429 103.68 40.6675 104.902 41.7002C106.016 40.3528 106.558 41.1789 106.006 39.5661C108.037 38.3663 108.234 37.2451 109.693 36.1338C110.185 35.9863 110.58 35.7699 110.846 35.4257C110.373 35.6519 110.018 35.8879 109.693 36.1338C109.032 36.3403 108.204 36.36 107.258 36.3797C106.321 36.4288 105.277 36.4288 104.202 36.4682C103.137 36.4878 102.053 36.6944 101.048 36.9501C100.042 37.2058 99.1157 37.6287 98.3961 38.3171C96.9372 40.5889 98.5144 43.0574 98.9678 45.8799V45.8602ZM79.0954 30.9706C79.0264 31.4329 77.2422 32.6819 77.9224 33.1638C78.849 32.6327 79.7558 32.0328 80.7219 31.5607C81.0669 31.482 81.4612 31.2952 81.9836 30.9018L80.7219 31.5607C79.9826 31.7279 79.5685 31.3542 79.0954 30.9706C79.1052 30.8723 79.0658 30.7936 78.8588 30.7936C78.9377 30.8526 79.0067 30.9116 79.0954 30.9706ZM46.5858 158.152C46.5858 160.876 48.7939 163.079 51.5244 163.079H155.253C167.841 163.079 177.117 153.923 177.117 140.331C177.117 126.74 168.028 117.2 155.352 117.2C153.893 117.2 152.513 117.318 151.202 117.554C144.874 118.685 139.077 113.807 139.077 107.395V103.894C139.077 101.18 136.869 98.9768 134.149 98.9768H121.827C119.097 98.9768 116.898 96.7739 116.898 94.0595V73.3971C116.898 67.4471 113.488 61.4087 104.971 61.4087C100.801 61.4087 97.1344 62.756 92.8464 65.5589C90.8158 66.8866 88.1937 66.4735 86.518 64.723C84.4184 62.52 81.5499 61.4087 78.0998 61.4087C72.422 61.4087 67.3159 64.3296 62.9589 67.7323V66.09C62.9589 63.9165 61.1944 62.1561 59.016 62.1561H50.5288C48.3503 62.1561 46.5858 63.9165 46.5858 66.09V69.896H50.1542C52.3228 69.896 54.0774 71.6465 54.0972 73.8003L54.6984 151.376C54.7182 153.559 52.9438 155.339 50.7555 155.339H46.5858V158.152ZM40.425 164.859L42.1698 166.088L42.1993 165.823C41.6276 165.419 41.0164 165.026 40.4644 164.593L40.425 164.859ZM34.8457 164.721C35.7822 166.255 36.9946 167.396 38.01 166.757C36.5018 166.206 35.5949 165.783 34.5402 163.993C36.7778 161.702 37.1228 166.373 40.0406 165.488C39.1633 163.885 38.0099 163.216 36.8172 162.636C35.654 162.036 34.4909 161.486 33.5939 160.217C33.4263 161.181 33.9093 163.187 34.8556 164.721H34.8457ZM31.3562 173.867L33.0221 175.687L32.4307 173.985C32.135 174.034 31.8491 174.32 31.3562 173.867ZM30.0846 175.647C30.5874 175.244 31.2281 176.051 31.79 176.719C32.3814 177.359 32.8841 177.86 33.0418 176.906C32.0068 176.542 30.7845 174.595 30.0846 175.647ZM24.4758 132.621C24.2984 131.834 24.0815 130.605 23.7956 129.464C23.5591 128.323 23.2141 127.271 22.6818 126.858C22.5733 126.75 22.4255 126.681 22.248 126.651C22.4058 126.671 22.5438 126.75 22.6818 126.858C23.4309 127.605 22.7212 130.33 23.9139 131.087L23.5886 131.018L24.4659 132.621H24.4758ZM120.486 155.339H125.346C128.067 155.339 130.275 153.136 130.275 150.422V121.469C130.275 113.326 123.66 106.727 115.489 106.717H112.926C110.205 106.717 107.997 104.514 107.997 101.799V75.3738C107.997 72.0694 106.489 69.1485 102.605 69.1485C99.6283 69.1485 96.3556 70.5844 93.5758 72.3251C91.2988 73.7609 89.9286 76.2786 89.9286 78.9733V124.852C89.9286 141.688 103.611 155.339 120.486 155.339ZM57.2811 203.971C56.5418 203.804 56.0785 203.764 55.763 203.794C56.6896 204.374 57.6162 204.954 58.5527 205.505C58.4837 205.092 58.1485 204.6 57.2811 203.971ZM30.4198 178.696C29.9368 178.726 29.1679 178.047 28.3596 177.191C27.985 176.916 27.571 176.483 27.2162 175.972C26.3881 175.097 25.6685 174.261 25.1855 173.975C27.571 177.545 30.1635 180.938 32.9433 184.154C32.9728 183.672 32.9531 183.092 32.8151 182.473C32.5786 181.292 31.9575 179.935 30.4099 178.696H30.4198ZM32.9531 184.154C32.9236 184.567 32.8743 184.921 32.8151 185.167C33.653 186.898 30.8634 185.993 30.2621 186.8C32.5391 188.865 33.7023 187.567 36.0286 189.465C36.4229 190.173 36.0089 190.203 35.6442 190.075L37.6058 190.94C37.3101 191.383 40.839 195.149 37.8325 193.881C37.5269 193.536 36.8764 192.986 36.4525 192.484C38.6408 196.261 43.5596 202.053 42.3373 203.243C44.0131 205.004 43.9638 203.971 46.7436 206.626C48.922 206.597 48.1334 204.473 51.9581 206.066L49.7008 203.735C49.0206 203.558 48.3897 203.499 47.6899 203.253L50.5091 205.033C48.4489 204.315 48.3602 205.082 47.1379 205.712C42.8302 202.702 43.1161 200.047 41.5389 197.933C42.4556 198.08 43.3822 198.641 44.1117 198.936C44.8411 199.231 45.3833 199.221 45.4621 198.316C46.6154 200.912 48.4292 198.995 50.0261 201.689L49.3262 201.709C51.9482 202.083 51.3765 203.479 53.5846 203.686C53.2888 203.863 53.4071 204.158 53.5156 204.443C56.7882 205.83 54.2647 203.922 55.7828 203.794C47.3054 198.424 39.6068 191.815 32.9728 184.154H32.9531ZM219.109 149.586C218.823 150.254 217.769 151.071 217.049 150.343C217.236 151.484 218.636 153.441 219.109 149.586ZM124.528 221.496C123.966 221.191 122.724 220.906 123.237 220.414C122.33 221.063 122.527 222.332 124.528 221.496ZM224.55 99.8423C224.619 99.8029 224.688 99.7833 224.748 99.7046C224.6 99.3801 224.55 99.5571 224.55 99.8423ZM25.4024 56.6193C24.3674 58.7829 23.2634 61.4579 22.3565 64.1722C23.4802 62.2741 24.6828 60.4252 25.9248 58.6058C26.2994 57.4945 26.2994 56.6881 25.4024 56.6291V56.6193ZM217.591 80.1633L216.586 78.334C216.95 79.2782 217.276 79.7994 217.591 80.1633ZM15.6535 160.246C16.5604 160.905 16.6786 161.869 17.2208 162.813C15.5845 161.751 14.0073 160.61 12.371 159.44C11.612 160.669 12.0851 162.331 12.7554 163.964C13.4553 165.577 14.3917 167.111 14.4213 168.262C15.1705 165.006 16.2745 169.52 15.614 164.377C16.6984 164.81 17.7629 165.223 18.8275 165.626C19.281 167.003 19.8626 168.311 20.4047 169.658C20.9962 169.373 22.5438 170.937 22.7902 170.228C20.7103 166.796 18.8078 163.216 17.1222 159.499L15.6535 160.246ZM36.4426 192.474C36.3145 192.248 36.1666 191.992 36.0582 191.786C36.0878 191.992 36.2553 192.228 36.4426 192.474ZM49.6416 203.676L49.6909 203.735C49.8092 203.764 49.9176 203.774 50.0458 203.814L49.6416 203.676ZM188.867 41.0216C188.926 40.9626 189.005 40.9331 189.034 40.8052L187.674 40.5692L187.694 40.5889C188.108 40.7561 188.492 40.8937 188.857 41.0118L188.867 41.0216ZM24.1111 174.693C22.4255 175.529 21.1539 171.851 19.971 170.632C20.1977 171.91 18.6205 170.73 18.2262 171.389C18.8571 171.999 19.7936 172.599 20.4441 173.818C20.0597 174.821 18.3938 173.356 17.8615 171.743C18.039 174.034 15.2493 170.238 16.0576 173.159C19.8823 178.195 23.0662 181.469 27.9259 183.072C27.295 182.463 26.6543 181.833 26.0037 181.204C25.3925 180.545 24.7912 179.866 24.2294 179.178C23.6675 178.49 23.1549 177.801 22.7212 177.103C22.3072 176.385 21.972 175.677 21.7453 174.979L23.7562 175.077C24.0027 176.818 24.742 177.89 25.5305 178.893C25.9347 179.394 26.3684 179.866 26.812 180.378C27.2654 180.879 27.7484 181.401 28.2019 182.04C26.9303 180.063 25.8657 177.949 24.7321 175.913C24.3969 174.172 24.6138 173.72 25.0968 173.946C25.1264 173.956 25.156 173.985 25.1855 174.005C25.0081 173.739 24.8307 173.484 24.6631 173.218C23.3521 172.195 22.2579 171.507 24.1111 174.713V174.693ZM216.536 64.3886C215.147 62.8446 213.855 61.271 212.387 59.8253C213.412 60.1597 211.785 57.7699 213.146 58.4485C212.82 58.1043 211.489 56.4029 211.47 57.1012L212.12 58.1338C208.729 56.5209 209.035 58.4878 204.944 55.1342C205.27 56.7766 205.841 57.7207 206.561 58.3797C207.251 59.0484 208.079 59.4319 208.907 59.9138C209.321 60.3269 209.607 60.7006 209.922 61.0743C211.608 61.9693 213.185 62.9626 214.821 63.9854L216.536 64.3984V64.3886ZM167.26 212.97L165.318 214.897L165.633 214.927L167.585 212.989L167.26 212.97ZM47.5124 35.6126C46.4873 36.1731 45.5311 36.8616 44.5947 37.6188C43.1653 38.8973 41.7163 40.2348 40.1391 41.474L40.1589 40.4512C39.2126 41.0904 38.2268 42.1722 37.1622 43.3426C36.1075 44.5227 35.033 45.87 33.7614 46.9715L32.2434 46.6175C31.6322 47.6304 30.6662 48.9974 29.5721 50.4431C28.5173 51.9183 27.3542 53.5115 26.2698 54.8982C26.881 55.3801 28.7342 52.7444 28.5666 54.5245C29.6411 53.1673 30.4099 51.8987 29.3552 51.8495C30.1142 50.8759 30.8831 50.984 31.7505 50.8955C36.4229 45.2898 41.6966 40.1562 47.5124 35.6027V35.6126ZM25.2841 60.1892C25.5404 59.6188 25.7671 59.0877 25.9248 58.596C27.7386 55.9407 29.6805 53.3738 31.7407 50.9054C32.1054 50.866 32.48 50.7972 32.894 50.6005C31.652 52.4592 30.5775 54.4163 29.4636 56.3242C29.0595 56.6881 28.8623 56.7766 28.7539 56.7274L29.6706 57.9863C28.6948 59.3631 28.1033 59.55 27.7682 58.9697C27.3542 59.8057 27.0979 60.5629 26.9204 61.2809C26.7627 62.0086 26.6641 62.6872 26.5459 63.3559C26.3093 64.6935 25.9248 65.9326 24.8307 67.5061C24.5054 65.4606 24.3871 64.1034 25.8361 61.7627C25.0574 63.0216 24.2294 64.2607 23.4999 65.5491C23.3915 64.3099 24.5054 62.1168 25.2841 60.1794V60.1892ZM28.2512 56.0095L28.6652 56.5898C28.5567 56.1669 28.9609 55.1244 28.2512 56.0095ZM174.406 73.0332L173.549 73.2692C174.002 73.2102 174.268 73.1315 174.406 73.0332ZM50.1148 33.6555C49.2375 34.2947 48.37 34.9537 47.5223 35.6224C48.1236 35.288 48.7545 34.993 49.4149 34.7963C49.6416 34.4226 49.8683 34.039 50.1148 33.6555ZM96.326 14.8124C96.0895 14.5862 95.6853 14.5075 94.7686 14.8517C95.0643 13.8683 96.2275 13.5929 97.6272 13.4257C99.0368 13.2585 100.653 13.052 101.984 12.3046C100.752 11.9407 100.397 11.685 100.506 11.39C100.614 11.0949 101.205 10.8196 101.856 10.5835C103.147 10.082 104.675 9.60991 102.99 9.01C102.585 9.95412 101.748 10.4852 100.653 10.8491C99.5593 11.2326 98.2088 11.4195 96.7795 11.5572C95.3403 11.6653 93.842 11.9014 92.4521 12.1669C91.7621 12.3144 91.0918 12.4816 90.4905 12.7078C89.8892 12.9438 89.347 13.2487 88.8837 13.5929C84.8028 14.0945 90.3821 11.6555 88.3514 11.9014L87.3263 13.3175C85.6702 13.3569 85.0492 13.1209 84.9014 12.3439C82.7032 12.639 80.3966 13.2389 78.3167 14.2027C76.2466 15.196 74.3343 16.3466 72.9247 17.7825C74.975 16.5531 74.7582 17.1137 74.5709 17.7529C74.3836 18.4315 74.2062 19.0905 76.3748 18.3627C75.8228 18.8741 74.8863 19.4838 73.7724 20.1133C72.6585 20.7427 71.3377 21.3131 70.0661 21.9031C71.1898 21.1065 70.1153 20.8803 69.4648 20.6148C69.1395 20.487 68.9128 20.3394 69.1395 20.1133C69.3563 19.8772 70.0365 19.5625 71.5151 19.1593C70.7758 18.4709 70.0858 18.8053 69.2873 19.4642C68.4889 20.1231 67.5722 21.0574 66.2808 21.4999C67.2567 20.3296 69.6619 18.0086 69.3465 17.9595C67.9369 19.9461 64.7628 20.8804 61.8845 21.913C58.9667 22.8276 56.3841 23.8209 56.1179 24.9519C55.211 26.3681 54.0479 28.0694 52.796 29.7118C51.83 30.9903 50.9132 32.3573 50.0951 33.6653C60.4847 26.0632 72.491 20.2804 85.7491 16.9268C89.2682 16.0319 92.7971 15.3336 96.3162 14.8222L96.326 14.8124ZM97.6568 15.9926L100.466 14.5174H99.8057C99.9634 14.4485 100.141 14.3797 100.308 14.3108C98.9777 14.4485 97.6568 14.6157 96.326 14.8124C96.7499 15.2255 96.5725 16.1401 97.6568 15.9926ZM222.924 93.4105L222.806 93.735C223.17 94.7578 223.427 95.8101 223.732 96.8427C223.476 95.6921 223.249 94.5316 222.924 93.4105Z" fill="white"/>
</svg>
