<svg width="48" height="48" viewBox="0 0 48 48" fill="none" xmlns="http://www.w3.org/2000/svg">
<path d="M14.998 22C16.6549 22 17.998 20.6569 17.998 19C17.998 17.3431 16.6549 16 14.998 16C13.3412 16 11.998 17.3431 11.998 19C11.998 20.6569 13.3412 22 14.998 22Z" fill="#A8A8A8"/>
<path d="M20.998 28L17.998 24L11.998 32H35.998L26.998 20L20.998 28Z" fill="#A8A8A8"/>
<path d="M39.998 8H7.99805C5.79205 8 3.99805 9.794 3.99805 12V36C3.99805 38.206 5.79205 40 7.99805 40H39.998C42.204 40 43.998 38.206 43.998 36V12C43.998 9.794 42.204 8 39.998 8ZM7.99805 36V12H39.998L40.002 36H7.99805Z" fill="#A8A8A8"/>
</svg>
